<?xml version="1.0" encoding="UTF-8"?>
<svg xmlns="http://www.w3.org/2000/svg" viewBox="0 0 620 210" role="img"><rect width="100%" height="100%" fill="#fff"/><defs><marker id="ca" markerWidth="10" markerHeight="10" refX="6" refY="3" orient="auto"><path d="M0,0 L6,3 L0,6 Z" fill="#555"/></marker></defs><line x1="96" y1="120" x2="144" y2="120" stroke="#555" stroke-width="3" marker-end="url(#ca)"/><line x1="216" y1="120" x2="274" y2="120" stroke="#555" stroke-width="3" marker-end="url(#ca)"/><line x1="346" y1="120" x2="409" y2="120" stroke="#555" stroke-width="3" marker-end="url(#ca)"/><line x1="481" y1="120" x2="524" y2="120" stroke="#555" stroke-width="3" marker-end="url(#ca)"/><circle cx="60" cy="120" r="24" fill="#f6c437"/><line x1="86" y1="120" x2="95" y2="120" stroke="#f6c437" stroke-width="3"/><line x1="78.38477631085024" y1="138.38477631085024" x2="84.74873734152916" y2="144.74873734152916" stroke="#f6c437" stroke-width="3"/><line x1="60" y1="146" x2="60" y2="155" stroke="#f6c437" stroke-width="3"/><line x1="41.615223689149765" y1="138.38477631085024" x2="35.251262658470836" y2="144.74873734152916" stroke="#f6c437" stroke-width="3"/><line x1="34" y1="120" x2="25" y2="120" stroke="#f6c437" stroke-width="3"/><line x1="41.61522368914976" y1="101.61522368914976" x2="35.251262658470836" y2="95.25126265847084" stroke="#f6c437" stroke-width="3"/><line x1="59.99999999999999" y1="94" x2="59.99999999999999" y2="85" stroke="#f6c437" stroke-width="3"/><line x1="78.38477631085023" y1="101.61522368914976" x2="84.74873734152916" y2="95.25126265847084" stroke="#f6c437" stroke-width="3"/><text x="60" y="172" font-family="Arial,Helvetica,sans-serif" font-size="13" font-weight="700" fill="#1a1a1a" text-anchor="middle">Sol</text><g fill="none" stroke="#3f9b3f" stroke-width="3.5" stroke-linecap="round"><path d="M162,144 Q153,120 147.6,94"/><path d="M171,144 Q166.5,120 163.8,94"/><path d="M180,144 Q180,120 180,94"/><path d="M189,144 Q193.5,120 196.2,94"/><path d="M198,144 Q207,120 212.4,94"/></g><ellipse cx="180" cy="146" rx="26" ry="5" fill="#7cba5a"/><text x="180" y="172" font-family="Arial,Helvetica,sans-serif" font-size="13" font-weight="700" fill="#1a1a1a" text-anchor="middle">Capim</text><text x="180" y="188" font-family="Arial,Helvetica,sans-serif" font-size="10" font-weight="600" fill="#777" text-anchor="middle">Produtor</text><g><line x1="298" y1="116" x2="284" y2="104" stroke="#3f6b2f" stroke-width="2" stroke-linecap="round"/><line x1="298" y1="118" x2="286" y2="110" stroke="#3f6b2f" stroke-width="2" stroke-linecap="round"/><line x1="306" y1="126" x2="302" y2="138" stroke="#3f6b2f" stroke-width="2"/><line x1="312" y1="127" x2="310" y2="139" stroke="#3f6b2f" stroke-width="2"/><path d="M316,124 L326,108 L332,132" fill="none" stroke="#3f6b2f" stroke-width="3" stroke-linejoin="round"/><ellipse cx="310" cy="120" rx="16" ry="8" fill="#6aa84f"/><circle cx="297" cy="119" r="6" fill="#5c9444"/><circle cx="295" cy="118" r="1.8" fill="#1a1a1a"/></g><text x="310" y="172" font-family="Arial,Helvetica,sans-serif" font-size="13" font-weight="700" fill="#1a1a1a" text-anchor="middle">Gafanhoto</text><text x="310" y="188" font-family="Arial,Helvetica,sans-serif" font-size="10" font-weight="600" fill="#777" text-anchor="middle">1º consumidor</text><g><path d="M431,126 Q419,130 425,140 Q429,134 437,132 Z" fill="#4e9c3e"/><path d="M459,126 Q471,130 465,140 Q461,134 453,132 Z" fill="#4e9c3e"/><ellipse cx="445" cy="124" rx="18" ry="13" fill="#5cae4a"/><circle cx="437" cy="111" r="7" fill="#5cae4a"/><circle cx="453" cy="111" r="7" fill="#5cae4a"/><circle cx="437" cy="110" r="3.2" fill="#fff"/><circle cx="453" cy="110" r="3.2" fill="#fff"/><circle cx="437" cy="110" r="1.6" fill="#1a1a1a"/><circle cx="453" cy="110" r="1.6" fill="#1a1a1a"/><path d="M436,126 Q445,131 454,126" fill="none" stroke="#3a7a2e" stroke-width="1.6"/></g><text x="445" y="172" font-family="Arial,Helvetica,sans-serif" font-size="13" font-weight="700" fill="#1a1a1a" text-anchor="middle">Sapo</text><text x="445" y="188" font-family="Arial,Helvetica,sans-serif" font-size="10" font-weight="600" fill="#777" text-anchor="middle">2º consumidor</text><g><path d="M526,116 Q544,100 556,116 Q558,120 554,122 Q542,116 526,116 Z" fill="#7a5230"/><path d="M594,116 Q576,100 564,116 Q562,120 566,122 Q578,116 594,116 Z" fill="#7a5230"/><ellipse cx="560" cy="120" rx="6" ry="13" fill="#5e3f24"/><circle cx="560" cy="106" r="5" fill="#5e3f24"/><path d="M557,104 L551,105 L557,107 Z" fill="#e8a33c"/><path d="M556,131 L560,140 L564,131 Z" fill="#5e3f24"/></g><text x="560" y="172" font-family="Arial,Helvetica,sans-serif" font-size="13" font-weight="700" fill="#1a1a1a" text-anchor="middle">Gavião</text><text x="560" y="188" font-family="Arial,Helvetica,sans-serif" font-size="10" font-weight="600" fill="#777" text-anchor="middle">3º consumidor</text><text x="300" y="32" font-family="Arial,Helvetica,sans-serif" font-size="18" font-weight="700" fill="#1a1a1a" text-anchor="middle">Cadeia Alimentar</text></svg>
