<?xml version="1.0" encoding="UTF-8"?>
<svg xmlns="http://www.w3.org/2000/svg" viewBox="0 0 480 360" role="img"><rect width="100%" height="100%" fill="#fff"/><rect x="40" y="40" width="400" height="56" fill="#10204a"/><text x="240" y="73" font-family="Arial,Helvetica,sans-serif" font-size="14" font-weight="700" fill="#fff" text-anchor="middle">Exosfera</text><rect x="40" y="96" width="400" height="56" fill="#243a6e"/><text x="240" y="129" font-family="Arial,Helvetica,sans-serif" font-size="14" font-weight="700" fill="#fff" text-anchor="middle">Termosfera</text><rect x="40" y="152" width="400" height="56" fill="#3a5e9e"/><text x="240" y="185" font-family="Arial,Helvetica,sans-serif" font-size="14" font-weight="700" fill="#fff" text-anchor="middle">Mesosfera</text><rect x="40" y="208" width="400" height="56" fill="#6aa0d4"/><text x="240" y="241" font-family="Arial,Helvetica,sans-serif" font-size="14" font-weight="700" fill="#1a1a1a" text-anchor="middle">Estratosfera</text><rect x="40" y="264" width="400" height="66" fill="#bfe0f2"/><text x="240" y="302" font-family="Arial,Helvetica,sans-serif" font-size="14" font-weight="700" fill="#1a1a1a" text-anchor="middle">Troposfera</text><path d="M40,330 Q140,312 240,330 T440,330 L440,350 L40,350 Z" fill="#7cba5a"/><g fill="#fff"><circle cx="90" cy="70" r="1.6"/><circle cx="160" cy="58" r="1.6"/><circle cx="300" cy="80" r="1.6"/><circle cx="380" cy="64" r="1.6"/><circle cx="120" cy="110" r="1.6"/><circle cx="360" cy="120" r="1.6"/></g><path d="M150,300 l16,-4 l6,-6 l3,7 l10,1 l-9,4 l-9,0 Z" fill="#fff" stroke="#999" stroke-width="0.8"/><text x="240" y="28" font-family="Arial,Helvetica,sans-serif" font-size="18" font-weight="700" fill="#1a1a1a" text-anchor="middle">Camadas da Atmosfera</text><text x="446" y="335" font-family="Arial,Helvetica,sans-serif" font-size="10" font-weight="600" fill="#3a7a2e" text-anchor="start">solo</text></svg>
