<?xml version="1.0" encoding="UTF-8"?>
<svg xmlns="http://www.w3.org/2000/svg" viewBox="0 0 520 370" role="img"><rect width="100%" height="100%" fill="#fff"/><g><circle cx="70" cy="70" r="30" fill="#f6c437"/><line x1="104" y1="70" x2="116" y2="70" stroke="#f6c437" stroke-width="3"/><line x1="99.44486372867092" y1="87" x2="109.83716857408419" y2="93" stroke="#f6c437" stroke-width="3"/><line x1="87" y1="99.44486372867091" x2="93" y2="109.83716857408417" stroke="#f6c437" stroke-width="3"/><line x1="70" y1="104" x2="70" y2="116" stroke="#f6c437" stroke-width="3"/><line x1="53.00000000000001" y1="99.44486372867092" x2="47.000000000000014" y2="109.83716857408419" stroke="#f6c437" stroke-width="3"/><line x1="40.55513627132908" y1="87" x2="30.16283142591582" y2="93" stroke="#f6c437" stroke-width="3"/><line x1="36" y1="70" x2="24" y2="70" stroke="#f6c437" stroke-width="3"/><line x1="40.55513627132909" y1="53" x2="30.162831425915826" y2="47" stroke="#f6c437" stroke-width="3"/><line x1="52.999999999999986" y1="40.55513627132909" x2="46.99999999999998" y2="30.162831425915833" stroke="#f6c437" stroke-width="3"/><line x1="70" y1="36" x2="69.99999999999999" y2="24" stroke="#f6c437" stroke-width="3"/><line x1="87" y1="40.55513627132909" x2="93" y2="30.162831425915826" stroke="#f6c437" stroke-width="3"/><line x1="99.4448637286709" y1="52.999999999999986" x2="109.83716857408416" y2="46.99999999999998" stroke="#f6c437" stroke-width="3"/></g><path d="M300,300 Q330,290 360,300 T420,300 T480,300 T520,300 L520,360 L300,360 Z" fill="#5aa9e6"/><rect x="0" y="330" width="520" height="30" fill="#7cba5a"/><path d="M0,330 L120,330 L80,260 L40,300 Z" fill="#9c8466"/><g fill="#cfd8e3"><ellipse cx="300" cy="90" rx="50.4" ry="28.799999999999997"/><circle cx="264" cy="94.8" r="24"/><circle cx="336" cy="94.8" r="26.4"/><circle cx="300" cy="75.6" r="28.799999999999997"/></g><line x1="255" y1="130" x2="249" y2="160" stroke="#5aa9e6" stroke-width="2.4"/><line x1="271" y1="130" x2="265" y2="160" stroke="#5aa9e6" stroke-width="2.4"/><line x1="287" y1="130" x2="281" y2="160" stroke="#5aa9e6" stroke-width="2.4"/><line x1="303" y1="130" x2="297" y2="160" stroke="#5aa9e6" stroke-width="2.4"/><line x1="319" y1="130" x2="313" y2="160" stroke="#5aa9e6" stroke-width="2.4"/><line x1="335" y1="130" x2="329" y2="160" stroke="#5aa9e6" stroke-width="2.4"/><line x1="351" y1="130" x2="345" y2="160" stroke="#5aa9e6" stroke-width="2.4"/><defs><marker id="wa" markerWidth="9" markerHeight="9" refX="6" refY="3" orient="auto"><path d="M0,0 L6,3 L0,6 Z" fill="#2f7fbf"/></marker></defs><line x1="430" y1="300" x2="400" y2="140" stroke="#2f7fbf" stroke-width="3" marker-end="url(#wa)"/><line x1="250" y1="165" x2="150" y2="300" stroke="#2f7fbf" stroke-width="3" marker-end="url(#wa)"/><text x="455" y="235" font-family="Arial,Helvetica,sans-serif" font-size="13" font-weight="600" fill="#2f7fbf" text-anchor="middle">Evaporação</text><text x="300" y="55" font-family="Arial,Helvetica,sans-serif" font-size="13" font-weight="600" fill="#5b6b7a" text-anchor="middle">Condensação</text><text x="205" y="150" font-family="Arial,Helvetica,sans-serif" font-size="13" font-weight="600" fill="#2f7fbf" text-anchor="end">Precipitação</text><text x="150" y="348" font-family="Arial,Helvetica,sans-serif" font-size="12" font-weight="600" fill="#3a5a2a" text-anchor="middle">Rio / Solo</text><text x="260" y="25" font-family="Arial,Helvetica,sans-serif" font-size="18" font-weight="700" fill="#1a1a1a" text-anchor="middle">Ciclo da Água</text></svg>
