<?xml version="1.0" encoding="UTF-8"?>
<svg xmlns="http://www.w3.org/2000/svg" viewBox="0 0 480 290" role="img"><rect width="100%" height="100%" fill="#fff"/><rect x="70" y="90" width="300" height="150" rx="4" fill="none" stroke="#444" stroke-width="3"/><rect x="198" y="78" width="44" height="24" fill="#fff"/><circle cx="220" cy="90" r="16" fill="#fff3c4" stroke="#c9a227" stroke-width="2"/><path d="M213,83 L227,97 M227,83 L213,97" stroke="#c9a227" stroke-width="1.5"/><text x="220" y="68" font-family="Arial,Helvetica,sans-serif" font-size="12" font-weight="700" fill="#1a1a1a" text-anchor="middle">Lâmpada</text><rect x="194" y="228" width="52" height="24" fill="#fff"/><line x1="208" y1="226" x2="208" y2="254" stroke="#c0392b" stroke-width="4"/><line x1="222" y1="232" x2="222" y2="248" stroke="#c0392b" stroke-width="4"/><line x1="234" y1="226" x2="234" y2="254" stroke="#c0392b" stroke-width="4"/><text x="208" y="222" font-family="Arial,Helvetica,sans-serif" font-size="14" font-weight="700" text-anchor="middle">+</text><text x="220" y="270" font-family="Arial,Helvetica,sans-serif" font-size="12" font-weight="700" fill="#1a1a1a" text-anchor="middle">Pilha</text><rect x="358" y="160" width="24" height="40" fill="#fff"/><circle cx="370" cy="195" r="3" fill="#444"/><circle cx="370" cy="160" r="3" fill="#444"/><line x1="370" y1="195" x2="384" y2="168" stroke="#444" stroke-width="3"/><text x="388" y="185" font-family="Arial,Helvetica,sans-serif" font-size="12" font-weight="700" fill="#1a1a1a" text-anchor="start">Interruptor</text><text x="62" y="170" font-family="Arial,Helvetica,sans-serif" font-size="12" font-weight="700" fill="#1a1a1a" text-anchor="end">Fio</text><text x="220" y="40" font-family="Arial,Helvetica,sans-serif" font-size="18" font-weight="700" fill="#1a1a1a" text-anchor="middle">Circuito Elétrico</text></svg>
