<?xml version="1.0" encoding="UTF-8"?>
<svg xmlns="http://www.w3.org/2000/svg" viewBox="0 0 640 210" role="img"><rect width="100%" height="100%" fill="#fff"/><line x1="310" y1="58" x2="200" y2="92" stroke="#9aa6b3" stroke-width="1.5"/><line x1="310" y1="58" x2="450" y2="92" stroke="#9aa6b3" stroke-width="1.5"/><line x1="200" y1="118" x2="120" y2="168" stroke="#9aa6b3" stroke-width="1.5"/><line x1="200" y1="118" x2="200" y2="168" stroke="#9aa6b3" stroke-width="1.5"/><line x1="200" y1="118" x2="280" y2="168" stroke="#9aa6b3" stroke-width="1.5"/><line x1="200" y1="118" x2="360" y2="168" stroke="#9aa6b3" stroke-width="1.5"/><line x1="200" y1="118" x2="440" y2="168" stroke="#9aa6b3" stroke-width="1.5"/><line x1="450" y1="118" x2="510" y2="168" stroke="#9aa6b3" stroke-width="1.5"/><line x1="450" y1="118" x2="590" y2="168" stroke="#9aa6b3" stroke-width="1.5"/><rect x="250" y="28" width="120" height="30" rx="7" fill="#cfe0ef" stroke="#5b7fa6" stroke-width="1.6"/><text x="310" y="47" font-family="Arial,Helvetica,sans-serif" font-size="12" font-weight="700" fill="#1a1a1a" text-anchor="middle">Animais</text><rect x="140" y="92" width="120" height="28" rx="7" fill="#dff0df" stroke="#5b7fa6" stroke-width="1.6"/><text x="200" y="110" font-family="Arial,Helvetica,sans-serif" font-size="12" font-weight="700" fill="#1a1a1a" text-anchor="middle">Vertebrados</text><rect x="390" y="92" width="120" height="28" rx="7" fill="#f6e7cf" stroke="#5b7fa6" stroke-width="1.6"/><text x="450" y="110" font-family="Arial,Helvetica,sans-serif" font-size="12" font-weight="700" fill="#1a1a1a" text-anchor="middle">Invertebrados</text><rect x="83" y="168" width="74" height="26" rx="7" fill="#eef4fb" stroke="#5b7fa6" stroke-width="1.6"/><text x="120" y="185" font-family="Arial,Helvetica,sans-serif" font-size="10.5" font-weight="700" fill="#1a1a1a" text-anchor="middle">Mamíferos</text><rect x="163" y="168" width="74" height="26" rx="7" fill="#eef4fb" stroke="#5b7fa6" stroke-width="1.6"/><text x="200" y="185" font-family="Arial,Helvetica,sans-serif" font-size="10.5" font-weight="700" fill="#1a1a1a" text-anchor="middle">Aves</text><rect x="243" y="168" width="74" height="26" rx="7" fill="#eef4fb" stroke="#5b7fa6" stroke-width="1.6"/><text x="280" y="185" font-family="Arial,Helvetica,sans-serif" font-size="10.5" font-weight="700" fill="#1a1a1a" text-anchor="middle">Répteis</text><rect x="323" y="168" width="74" height="26" rx="7" fill="#eef4fb" stroke="#5b7fa6" stroke-width="1.6"/><text x="360" y="185" font-family="Arial,Helvetica,sans-serif" font-size="10.5" font-weight="700" fill="#1a1a1a" text-anchor="middle">Anfíbios</text><rect x="403" y="168" width="74" height="26" rx="7" fill="#eef4fb" stroke="#5b7fa6" stroke-width="1.6"/><text x="440" y="185" font-family="Arial,Helvetica,sans-serif" font-size="10.5" font-weight="700" fill="#1a1a1a" text-anchor="middle">Peixes</text><rect x="473" y="168" width="74" height="26" rx="7" fill="#eef4fb" stroke="#5b7fa6" stroke-width="1.6"/><text x="510" y="185" font-family="Arial,Helvetica,sans-serif" font-size="10.5" font-weight="700" fill="#1a1a1a" text-anchor="middle">Insetos</text><rect x="553" y="168" width="74" height="26" rx="7" fill="#eef4fb" stroke="#5b7fa6" stroke-width="1.6"/><text x="590" y="185" font-family="Arial,Helvetica,sans-serif" font-size="10.5" font-weight="700" fill="#1a1a1a" text-anchor="middle">Moluscos</text><text x="310" y="18" font-family="Arial,Helvetica,sans-serif" font-size="17" font-weight="700" fill="#1a1a1a" text-anchor="middle">Classificação dos Animais</text></svg>
