<?xml version="1.0" encoding="UTF-8"?>
<svg xmlns="http://www.w3.org/2000/svg" viewBox="0 0 600 210" role="img"><rect width="100%" height="100%" fill="#fff"/><rect x="44" y="78" width="52" height="14" rx="3" fill="#2f6f9f"/><polygon points="47,94 93,94 88,150 52,150" fill="#2f6f9f"/><line x1="60" y1="104" x2="58" y2="142" stroke="#fff" stroke-width="2" opacity="0.6"/><line x1="70" y1="104" x2="70" y2="142" stroke="#fff" stroke-width="2" opacity="0.6"/><line x1="80" y1="104" x2="82" y2="142" stroke="#fff" stroke-width="2" opacity="0.6"/><text x="70" y="170" font-family="Arial,Helvetica,sans-serif" font-size="12" font-weight="700" fill="#1a1a1a" text-anchor="middle">Papel</text><text x="70" y="186" font-family="Arial,Helvetica,sans-serif" font-size="10" font-weight="600" fill="#777" text-anchor="middle">Azul</text><rect x="159" y="78" width="52" height="14" rx="3" fill="#c0392b"/><polygon points="162,94 208,94 203,150 167,150" fill="#c0392b"/><line x1="175" y1="104" x2="173" y2="142" stroke="#fff" stroke-width="2" opacity="0.6"/><line x1="185" y1="104" x2="185" y2="142" stroke="#fff" stroke-width="2" opacity="0.6"/><line x1="195" y1="104" x2="197" y2="142" stroke="#fff" stroke-width="2" opacity="0.6"/><text x="185" y="170" font-family="Arial,Helvetica,sans-serif" font-size="12" font-weight="700" fill="#1a1a1a" text-anchor="middle">Plástico</text><text x="185" y="186" font-family="Arial,Helvetica,sans-serif" font-size="10" font-weight="600" fill="#777" text-anchor="middle">Vermelho</text><rect x="274" y="78" width="52" height="14" rx="3" fill="#2c8a3f"/><polygon points="277,94 323,94 318,150 282,150" fill="#2c8a3f"/><line x1="290" y1="104" x2="288" y2="142" stroke="#fff" stroke-width="2" opacity="0.6"/><line x1="300" y1="104" x2="300" y2="142" stroke="#fff" stroke-width="2" opacity="0.6"/><line x1="310" y1="104" x2="312" y2="142" stroke="#fff" stroke-width="2" opacity="0.6"/><text x="300" y="170" font-family="Arial,Helvetica,sans-serif" font-size="12" font-weight="700" fill="#1a1a1a" text-anchor="middle">Vidro</text><text x="300" y="186" font-family="Arial,Helvetica,sans-serif" font-size="10" font-weight="600" fill="#777" text-anchor="middle">Verde</text><rect x="389" y="78" width="52" height="14" rx="3" fill="#e8b62e"/><polygon points="392,94 438,94 433,150 397,150" fill="#e8b62e"/><line x1="405" y1="104" x2="403" y2="142" stroke="#fff" stroke-width="2" opacity="0.6"/><line x1="415" y1="104" x2="415" y2="142" stroke="#fff" stroke-width="2" opacity="0.6"/><line x1="425" y1="104" x2="427" y2="142" stroke="#fff" stroke-width="2" opacity="0.6"/><text x="415" y="170" font-family="Arial,Helvetica,sans-serif" font-size="12" font-weight="700" fill="#1a1a1a" text-anchor="middle">Metal</text><text x="415" y="186" font-family="Arial,Helvetica,sans-serif" font-size="10" font-weight="600" fill="#777" text-anchor="middle">Amarelo</text><rect x="499" y="78" width="52" height="14" rx="3" fill="#7a5230"/><polygon points="502,94 548,94 543,150 507,150" fill="#7a5230"/><line x1="515" y1="104" x2="513" y2="142" stroke="#fff" stroke-width="2" opacity="0.6"/><line x1="525" y1="104" x2="525" y2="142" stroke="#fff" stroke-width="2" opacity="0.6"/><line x1="535" y1="104" x2="537" y2="142" stroke="#fff" stroke-width="2" opacity="0.6"/><text x="525" y="170" font-family="Arial,Helvetica,sans-serif" font-size="12" font-weight="700" fill="#1a1a1a" text-anchor="middle">Orgânico</text><text x="525" y="186" font-family="Arial,Helvetica,sans-serif" font-size="10" font-weight="600" fill="#777" text-anchor="middle">Marrom</text><text x="300" y="32" font-family="Arial,Helvetica,sans-serif" font-size="18" font-weight="700" fill="#1a1a1a" text-anchor="middle">Coleta Seletiva</text></svg>
