<?xml version="1.0" encoding="UTF-8"?>
<svg xmlns="http://www.w3.org/2000/svg" viewBox="0 0 500 280" role="img"><rect width="100%" height="100%" fill="#fff"/><circle cx="70" cy="150" r="34" fill="#f6c437"/><line x1="107" y1="150" x2="116" y2="150" stroke="#f6c437" stroke-width="3"/><line x1="102.04293994002424" y1="168.5" x2="109.83716857408419" y2="173" stroke="#f6c437" stroke-width="3"/><line x1="88.5" y1="182.0429399400242" x2="93" y2="189.83716857408416" stroke="#f6c437" stroke-width="3"/><line x1="70" y1="187" x2="70" y2="196" stroke="#f6c437" stroke-width="3"/><line x1="51.50000000000001" y1="182.04293994002424" x2="47.000000000000014" y2="189.8371685740842" stroke="#f6c437" stroke-width="3"/><line x1="37.95706005997577" y1="168.5" x2="30.16283142591582" y2="173" stroke="#f6c437" stroke-width="3"/><line x1="33" y1="150" x2="24" y2="150" stroke="#f6c437" stroke-width="3"/><line x1="37.957060059975774" y1="131.5" x2="30.162831425915826" y2="127" stroke="#f6c437" stroke-width="3"/><line x1="51.499999999999986" y1="117.95706005997577" x2="46.99999999999998" y2="110.16283142591584" stroke="#f6c437" stroke-width="3"/><line x1="70" y1="113" x2="69.99999999999999" y2="104" stroke="#f6c437" stroke-width="3"/><line x1="88.5" y1="117.95706005997577" x2="93" y2="110.16283142591583" stroke="#f6c437" stroke-width="3"/><line x1="102.04293994002421" y1="131.49999999999997" x2="109.83716857408416" y2="126.99999999999997" stroke="#f6c437" stroke-width="3"/><text x="70" y="204" font-family="Arial,Helvetica,sans-serif" font-size="13" font-weight="700" fill="#1a1a1a" text-anchor="middle">Sol</text><g stroke="#f6c437" stroke-width="2"><line x1="110" y1="120" x2="276" y2="132"/><line x1="110" y1="150" x2="276" y2="150"/><line x1="110" y1="180" x2="276" y2="168"/></g><circle cx="360" cy="150" r="78" fill="#3b7fd4"/><path d="M360,72 A 78 78 0 0 1 360,228 Z" fill="#1c2a44" opacity="0.78"/><path d="M330,130 q10,8 0,16 q12,4 18,-4" fill="#3f9b3f"/><text x="326" y="154" font-family="Arial,Helvetica,sans-serif" font-size="14" font-weight="700" fill="#fff" text-anchor="middle">Dia</text><text x="396" y="154" font-family="Arial,Helvetica,sans-serif" font-size="14" font-weight="700" fill="#fff" text-anchor="middle">Noite</text><defs><marker id="dn" markerWidth="9" markerHeight="9" refX="6" refY="3" orient="auto"><path d="M0,0 L6,3 L0,6 Z" fill="#c0392b"/></marker></defs><path d="M342,62 A 26 14 0 0 1 378,62" fill="none" stroke="#c0392b" stroke-width="2.4" marker-end="url(#dn)"/><text x="360" y="52" font-family="Arial,Helvetica,sans-serif" font-size="12" font-weight="700" fill="#c0392b" text-anchor="middle">Rotação</text><text x="260" y="30" font-family="Arial,Helvetica,sans-serif" font-size="18" font-weight="700" fill="#1a1a1a" text-anchor="middle">Dia e Noite</text></svg>
