<?xml version="1.0" encoding="UTF-8"?>
<svg xmlns="http://www.w3.org/2000/svg" viewBox="0 0 740 300" role="img"><rect width="100%" height="100%" fill="#fff"/><circle cx="70" cy="95" r="26" fill="#f6c437"/><line x1="99" y1="95" x2="108" y2="95" stroke="#f6c437" stroke-width="3"/><line x1="95.11473670974873" y1="109.5" x2="102.90896534380867" y2="114" stroke="#f6c437" stroke-width="3"/><line x1="84.5" y1="120.11473670974871" x2="89" y2="127.90896534380866" stroke="#f6c437" stroke-width="3"/><line x1="70" y1="124" x2="70" y2="133" stroke="#f6c437" stroke-width="3"/><line x1="55.50000000000001" y1="120.11473670974873" x2="51.00000000000001" y2="127.90896534380867" stroke="#f6c437" stroke-width="3"/><line x1="44.885263290251274" y1="109.5" x2="37.091034656191326" y2="114" stroke="#f6c437" stroke-width="3"/><line x1="41" y1="95" x2="32" y2="95" stroke="#f6c437" stroke-width="3"/><line x1="44.88526329025128" y1="80.5" x2="37.09103465619133" y2="76" stroke="#f6c437" stroke-width="3"/><line x1="55.499999999999986" y1="69.88526329025129" x2="50.999999999999986" y2="62.09103465619134" stroke="#f6c437" stroke-width="3"/><line x1="70" y1="66" x2="70" y2="57" stroke="#f6c437" stroke-width="3"/><line x1="84.5" y1="69.88526329025129" x2="89" y2="62.09103465619133" stroke="#f6c437" stroke-width="3"/><line x1="95.11473670974871" y1="80.49999999999999" x2="102.90896534380866" y2="75.99999999999999" stroke="#f6c437" stroke-width="3"/><text x="70" y="141" font-family="Arial,Helvetica,sans-serif" font-size="12" font-weight="700" fill="#1a1a1a" text-anchor="middle">Sol</text><polygon points="180,95 470,79 470,111" fill="#bdbdbd" opacity="0.5"/><circle cx="180" cy="95" r="12" fill="#888"/><text x="180" y="129" font-family="Arial,Helvetica,sans-serif" font-size="11" font-weight="700" fill="#1a1a1a" text-anchor="middle">Lua</text><circle cx="470" cy="95" r="30" fill="#3b7fd4"/><text x="470" y="143" font-family="Arial,Helvetica,sans-serif" font-size="12" font-weight="700" fill="#1a1a1a" text-anchor="middle">Terra</text><text x="560" y="95" font-family="Arial,Helvetica,sans-serif" font-size="13" font-weight="700" fill="#b8860b" text-anchor="start">Eclipse Solar</text><text x="560" y="113" font-family="Arial,Helvetica,sans-serif" font-size="10" font-weight="600" fill="#777" text-anchor="start">(Lua entre Sol e Terra)</text><circle cx="70" cy="235" r="26" fill="#f6c437"/><line x1="99" y1="235" x2="108" y2="235" stroke="#f6c437" stroke-width="3"/><line x1="95.11473670974873" y1="249.5" x2="102.90896534380867" y2="254" stroke="#f6c437" stroke-width="3"/><line x1="84.5" y1="260.11473670974874" x2="89" y2="267.9089653438087" stroke="#f6c437" stroke-width="3"/><line x1="70" y1="264" x2="70" y2="273" stroke="#f6c437" stroke-width="3"/><line x1="55.50000000000001" y1="260.11473670974874" x2="51.00000000000001" y2="267.9089653438087" stroke="#f6c437" stroke-width="3"/><line x1="44.885263290251274" y1="249.5" x2="37.091034656191326" y2="254" stroke="#f6c437" stroke-width="3"/><line x1="41" y1="235" x2="32" y2="235" stroke="#f6c437" stroke-width="3"/><line x1="44.88526329025128" y1="220.5" x2="37.09103465619133" y2="216" stroke="#f6c437" stroke-width="3"/><line x1="55.499999999999986" y1="209.8852632902513" x2="50.999999999999986" y2="202.09103465619134" stroke="#f6c437" stroke-width="3"/><line x1="70" y1="206" x2="70" y2="197" stroke="#f6c437" stroke-width="3"/><line x1="84.5" y1="209.8852632902513" x2="89" y2="202.09103465619134" stroke="#f6c437" stroke-width="3"/><line x1="95.11473670974871" y1="220.5" x2="102.90896534380866" y2="215.99999999999997" stroke="#f6c437" stroke-width="3"/><text x="70" y="281" font-family="Arial,Helvetica,sans-serif" font-size="12" font-weight="700" fill="#1a1a1a" text-anchor="middle">Sol</text><circle cx="300" cy="235" r="30" fill="#3b7fd4"/><text x="300" y="283" font-family="Arial,Helvetica,sans-serif" font-size="12" font-weight="700" fill="#1a1a1a" text-anchor="middle">Terra</text><polygon points="330,235 520,215 520,255" fill="#555" opacity="0.45"/><circle cx="500" cy="235" r="12" fill="#aaa"/><text x="500" y="265" font-family="Arial,Helvetica,sans-serif" font-size="11" font-weight="700" fill="#1a1a1a" text-anchor="middle">Lua</text><text x="560" y="235" font-family="Arial,Helvetica,sans-serif" font-size="13" font-weight="700" fill="#555" text-anchor="start">Eclipse Lunar</text><text x="560" y="253" font-family="Arial,Helvetica,sans-serif" font-size="10" font-weight="600" fill="#777" text-anchor="start">(Terra entre Sol e Lua)</text><text x="360" y="30" font-family="Arial,Helvetica,sans-serif" font-size="18" font-weight="700" fill="#1a1a1a" text-anchor="middle">Eclipses</text></svg>
