<?xml version="1.0" encoding="UTF-8"?>
<svg xmlns="http://www.w3.org/2000/svg" viewBox="0 0 610 270" role="img"><rect width="100%" height="100%" fill="#fff"/><path d="M72,85 L178,85 L170,205 L80,205 Z" fill="#f4f8fc" stroke="#5b7fa6" stroke-width="2"/><rect x="94" y="143" width="26" height="26" rx="4" fill="#cfe7f7" stroke="#8fbcd9" stroke-width="1.5"/><line x1="98" y1="151" x2="108" y2="151" stroke="#eaf5fc" stroke-width="2"/><rect x="124" y="143" width="26" height="26" rx="4" fill="#cfe7f7" stroke="#8fbcd9" stroke-width="1.5"/><line x1="128" y1="151" x2="138" y2="151" stroke="#eaf5fc" stroke-width="2"/><rect x="109" y="115" width="26" height="26" rx="4" fill="#cfe7f7" stroke="#8fbcd9" stroke-width="1.5"/><line x1="113" y1="123" x2="123" y2="123" stroke="#eaf5fc" stroke-width="2"/><rect x="94" y="171" width="24" height="24" rx="4" fill="#cfe7f7" stroke="#8fbcd9" stroke-width="1.5"/><line x1="98" y1="179" x2="108" y2="179" stroke="#eaf5fc" stroke-width="2"/><text x="125" y="229" font-family="Arial,Helvetica,sans-serif" font-size="14" font-weight="700" fill="#1a1a1a" text-anchor="middle">Sólido</text><text x="125" y="245" font-family="Arial,Helvetica,sans-serif" font-size="11" font-weight="600" fill="#5b7fa6" text-anchor="middle">(gelo)</text><path d="M262,85 L368,85 L360,205 L270,205 Z" fill="#f4f8fc" stroke="#5b7fa6" stroke-width="2"/><path d="M274,135 L356,135 L360,205 L270,205 Z" fill="#9ad0f0"/><path d="M274,135 q12,-6 24,0 t24,0 t24,0" fill="none" stroke="#7bbbe4" stroke-width="2"/><circle cx="290" cy="155" r="4.5" fill="#3f8fc0"/><circle cx="320" cy="147" r="4.5" fill="#3f8fc0"/><circle cx="345" cy="160" r="4.5" fill="#3f8fc0"/><circle cx="305" cy="177" r="4.5" fill="#3f8fc0"/><circle cx="335" cy="180" r="4.5" fill="#3f8fc0"/><circle cx="318" cy="167" r="4.5" fill="#3f8fc0"/><text x="315" y="229" font-family="Arial,Helvetica,sans-serif" font-size="14" font-weight="700" fill="#1a1a1a" text-anchor="middle">Líquido</text><text x="315" y="245" font-family="Arial,Helvetica,sans-serif" font-size="11" font-weight="600" fill="#5b7fa6" text-anchor="middle">(água)</text><path d="M452,85 L558,85 L550,205 L460,205 Z" fill="#f4f8fc" stroke="#5b7fa6" stroke-width="2"/><circle cx="475" cy="180" r="4.5" fill="#9aa6b3"/><circle cx="520" cy="183" r="4.5" fill="#9aa6b3"/><circle cx="545" cy="165" r="4.5" fill="#9aa6b3"/><circle cx="495" cy="155" r="4.5" fill="#9aa6b3"/><circle cx="535" cy="140" r="4.5" fill="#9aa6b3"/><circle cx="480" cy="130" r="4.5" fill="#9aa6b3"/><circle cx="512" cy="123" r="4.5" fill="#9aa6b3"/><g fill="none" stroke="#bcc6d2" stroke-width="2.5" stroke-linecap="round"><path d="M490,83 q6,-10 0,-20 q-6,-10 0,-20"/><path d="M515,83 q6,-10 0,-20 q-6,-10 0,-20"/><path d="M540,83 q6,-10 0,-20 q-6,-10 0,-20"/></g><text x="505" y="229" font-family="Arial,Helvetica,sans-serif" font-size="14" font-weight="700" fill="#1a1a1a" text-anchor="middle">Gasoso</text><text x="505" y="245" font-family="Arial,Helvetica,sans-serif" font-size="11" font-weight="600" fill="#5b7fa6" text-anchor="middle">(vapor)</text><defs><marker id="ma" markerWidth="9" markerHeight="9" refX="6" refY="3" orient="auto"><path d="M0,0 L6,3 L0,6 Z" fill="#c0392b"/></marker><marker id="mb" markerWidth="9" markerHeight="9" refX="6" refY="3" orient="auto"><path d="M0,0 L6,3 L0,6 Z" fill="#2c7a3f"/></marker></defs><line x1="190" y1="123" x2="250" y2="123" stroke="#c0392b" stroke-width="2.4" marker-end="url(#ma)"/><text x="220" y="115" font-family="Arial,Helvetica,sans-serif" font-size="10" font-weight="600" fill="#c0392b" text-anchor="middle">Fusão</text><line x1="250" y1="163" x2="190" y2="163" stroke="#2c7a3f" stroke-width="2.4" marker-end="url(#mb)"/><text x="220" y="181" font-family="Arial,Helvetica,sans-serif" font-size="10" font-weight="600" fill="#2c7a3f" text-anchor="middle">Solidificação</text><line x1="380" y1="123" x2="440" y2="123" stroke="#c0392b" stroke-width="2.4" marker-end="url(#ma)"/><text x="410" y="115" font-family="Arial,Helvetica,sans-serif" font-size="10" font-weight="600" fill="#c0392b" text-anchor="middle">Vaporização</text><line x1="440" y1="163" x2="380" y2="163" stroke="#2c7a3f" stroke-width="2.4" marker-end="url(#mb)"/><text x="410" y="181" font-family="Arial,Helvetica,sans-serif" font-size="10" font-weight="600" fill="#2c7a3f" text-anchor="middle">Condensação</text><text x="305" y="34" font-family="Arial,Helvetica,sans-serif" font-size="18" font-weight="700" fill="#1a1a1a" text-anchor="middle">Estados Físicos da Água</text></svg>
