<?xml version="1.0" encoding="UTF-8"?>
<svg xmlns="http://www.w3.org/2000/svg" viewBox="0 0 580 330" role="img"><rect width="100%" height="100%" fill="#fff"/><circle cx="80" cy="80" r="36" fill="#39405c" stroke="#2a2f44" stroke-width="1"/><text x="80" y="138" font-family="Arial,Helvetica,sans-serif" font-size="12" font-weight="600" fill="#1a1a1a" text-anchor="middle">Lua Nova</text><circle cx="215" cy="80" r="36" fill="#39405c" stroke="#2a2f44" stroke-width="1"/><path d="M 215,44 A 36,36 0 0,1 215,116 A 28.8,36 0 0,0 215,44 Z" fill="#f6f1d8" stroke="#2a2f44" stroke-width="1"/><text x="215" y="138" font-family="Arial,Helvetica,sans-serif" font-size="12" font-weight="600" fill="#1a1a1a" text-anchor="middle">Crescente</text><circle cx="350" cy="80" r="36" fill="#39405c" stroke="#2a2f44" stroke-width="1"/><path d="M 350,44 A 36,36 0 0,1 350,116 A 0.01,36 0 0,0 350,44 Z" fill="#f6f1d8" stroke="#2a2f44" stroke-width="1"/><text x="350" y="138" font-family="Arial,Helvetica,sans-serif" font-size="12" font-weight="600" fill="#1a1a1a" text-anchor="middle">Quarto Crescente</text><circle cx="485" cy="80" r="36" fill="#39405c" stroke="#2a2f44" stroke-width="1"/><path d="M 485,44 A 36,36 0 0,1 485,116 A 19.8,36 0 0,1 485,44 Z" fill="#f6f1d8" stroke="#2a2f44" stroke-width="1"/><text x="485" y="138" font-family="Arial,Helvetica,sans-serif" font-size="12" font-weight="600" fill="#1a1a1a" text-anchor="middle">Gibosa Crescente</text><circle cx="80" cy="230" r="36" fill="#39405c" stroke="#2a2f44" stroke-width="1"/><circle cx="80" cy="230" r="36" fill="#f6f1d8" stroke="#2a2f44" stroke-width="1"/><text x="80" y="288" font-family="Arial,Helvetica,sans-serif" font-size="12" font-weight="600" fill="#1a1a1a" text-anchor="middle">Lua Cheia</text><circle cx="215" cy="230" r="36" fill="#39405c" stroke="#2a2f44" stroke-width="1"/><path d="M 215,194 A 36,36 0 0,0 215,266 A 19.8,36 0 0,0 215,194 Z" fill="#f6f1d8" stroke="#2a2f44" stroke-width="1"/><text x="215" y="288" font-family="Arial,Helvetica,sans-serif" font-size="12" font-weight="600" fill="#1a1a1a" text-anchor="middle">Gibosa Minguante</text><circle cx="350" cy="230" r="36" fill="#39405c" stroke="#2a2f44" stroke-width="1"/><path d="M 350,194 A 36,36 0 0,0 350,266 A 0.01,36 0 0,1 350,194 Z" fill="#f6f1d8" stroke="#2a2f44" stroke-width="1"/><text x="350" y="288" font-family="Arial,Helvetica,sans-serif" font-size="12" font-weight="600" fill="#1a1a1a" text-anchor="middle">Quarto Minguante</text><circle cx="485" cy="230" r="36" fill="#39405c" stroke="#2a2f44" stroke-width="1"/><path d="M 485,194 A 36,36 0 0,0 485,266 A 28.8,36 0 0,1 485,194 Z" fill="#f6f1d8" stroke="#2a2f44" stroke-width="1"/><text x="485" y="288" font-family="Arial,Helvetica,sans-serif" font-size="12" font-weight="600" fill="#1a1a1a" text-anchor="middle">Minguante</text><text x="290" y="28" font-family="Arial,Helvetica,sans-serif" font-size="18" font-weight="700" fill="#1a1a1a" text-anchor="middle">Fases da Lua</text></svg>
