<?xml version="1.0" encoding="UTF-8"?>
<svg xmlns="http://www.w3.org/2000/svg" viewBox="0 0 560 380" role="img"><rect width="100%" height="100%" fill="#fff"/><defs><marker id="fy" markerWidth="9" markerHeight="9" refX="6" refY="3" orient="auto"><path d="M0,0 L6,3 L0,6 Z" fill="#e0a92e"/></marker><marker id="fg" markerWidth="9" markerHeight="9" refX="6" refY="3" orient="auto"><path d="M0,0 L6,3 L0,6 Z" fill="#2c7a3f"/></marker><marker id="fb" markerWidth="9" markerHeight="9" refX="6" refY="3" orient="auto"><path d="M0,0 L6,3 L0,6 Z" fill="#2f7fbf"/></marker></defs><circle cx="70" cy="70" r="28" fill="#f6c437"/><line x1="102" y1="70" x2="112" y2="70" stroke="#f6c437" stroke-width="3"/><line x1="97.71281292110204" y1="86" x2="106.37306695894642" y2="91" stroke="#f6c437" stroke-width="3"/><line x1="86" y1="97.71281292110203" x2="91" y2="106.37306695894642" stroke="#f6c437" stroke-width="3"/><line x1="70" y1="102" x2="70" y2="112" stroke="#f6c437" stroke-width="3"/><line x1="54.00000000000001" y1="97.71281292110204" x2="49.000000000000014" y2="106.37306695894642" stroke="#f6c437" stroke-width="3"/><line x1="42.28718707889796" y1="86" x2="33.626933041053576" y2="91" stroke="#f6c437" stroke-width="3"/><line x1="38" y1="70" x2="28" y2="70" stroke="#f6c437" stroke-width="3"/><line x1="42.287187078897965" y1="54" x2="33.626933041053576" y2="49" stroke="#f6c437" stroke-width="3"/><line x1="53.999999999999986" y1="42.28718707889797" x2="48.999999999999986" y2="33.62693304105358" stroke="#f6c437" stroke-width="3"/><line x1="70" y1="38" x2="69.99999999999999" y2="28" stroke="#f6c437" stroke-width="3"/><line x1="86" y1="42.287187078897965" x2="91" y2="33.626933041053576" stroke="#f6c437" stroke-width="3"/><line x1="97.71281292110203" y1="53.999999999999986" x2="106.37306695894641" y2="48.999999999999986" stroke="#f6c437" stroke-width="3"/><rect x="0" y="300" width="480" height="80" fill="#caa472"/><path d="M250,300 C240,325 215,330 210,360" fill="none" stroke="#8a5a2b" stroke-width="3"/><path d="M250,300 C260,325 285,332 292,362" fill="none" stroke="#8a5a2b" stroke-width="3"/><line x1="250" y1="300" x2="250" y2="365" stroke="#8a5a2b" stroke-width="3"/><line x1="250" y1="300" x2="250" y2="150" stroke="#3f9b3f" stroke-width="8"/><path d="M250,200 C205,180 195,150 235,150 C235,180 250,190 250,200 Z" fill="#4bb357"/><path d="M250,175 C300,150 320,125 280,120 C275,150 255,165 250,175 Z" fill="#56c463"/><line x1="95" y1="92" x2="225" y2="160" stroke="#e0a92e" stroke-width="3" marker-end="url(#fy)"/><text x="150" y="110" font-family="Arial,Helvetica,sans-serif" font-size="13" font-weight="600" fill="#c98f1e" text-anchor="middle">Luz do Sol</text><line x1="400" y1="150" x2="300" y2="140" stroke="#2c7a3f" stroke-width="3" marker-end="url(#fg)"/><text x="405" y="150" font-family="Arial,Helvetica,sans-serif" font-size="12" font-weight="600" fill="#2c7a3f" text-anchor="start">Gás carbônico (CO₂)</text><line x1="300" y1="210" x2="400" y2="230" stroke="#2f7fbf" stroke-width="3" marker-end="url(#fb)"/><text x="405" y="232" font-family="Arial,Helvetica,sans-serif" font-size="12" font-weight="600" fill="#2f7fbf" text-anchor="start">Oxigênio (O₂)</text><line x1="250" y1="340" x2="250" y2="210" stroke="#2f7fbf" stroke-width="3" marker-end="url(#fb)"/><text x="150" y="300" font-family="Arial,Helvetica,sans-serif" font-size="12" font-weight="600" fill="#2f7fbf" text-anchor="middle">Água (H₂O) pelas raízes</text><text x="250" y="250" font-family="Arial,Helvetica,sans-serif" font-size="12" font-weight="700" fill="#3a7a2e" text-anchor="middle">Glicose (alimento)</text><text x="240" y="30" font-family="Arial,Helvetica,sans-serif" font-size="18" font-weight="700" fill="#1a1a1a" text-anchor="middle">Fotossíntese</text></svg>
