<?xml version="1.0" encoding="UTF-8"?>
<svg xmlns="http://www.w3.org/2000/svg" viewBox="0 0 560 260" role="img"><rect width="100%" height="100%" fill="#fff"/><rect x="0" y="150" width="560" height="90" fill="#caa472" opacity="0.5"/><line x1="0" y1="150" x2="560" y2="150" stroke="#a07a48" stroke-width="2"/><defs><marker id="ge" markerWidth="9" markerHeight="9" refX="6" refY="3" orient="auto"><path d="M0,0 L6,3 L0,6 Z" fill="#7a5a2b"/></marker></defs><line x1="114" y1="130" x2="176" y2="130" stroke="#7a5a2b" stroke-width="2.4" marker-end="url(#ge)"/><line x1="244" y1="130" x2="306" y2="130" stroke="#7a5a2b" stroke-width="2.4" marker-end="url(#ge)"/><line x1="374" y1="130" x2="436" y2="130" stroke="#7a5a2b" stroke-width="2.4" marker-end="url(#ge)"/><ellipse cx="80" cy="172" rx="9" ry="6" fill="#8a5a2b" transform="rotate(20 80 172)"/><text x="80" y="222" font-family="Arial,Helvetica,sans-serif" font-size="12" font-weight="700" fill="#1a1a1a" text-anchor="middle">Semente</text><ellipse cx="210" cy="168" rx="8" ry="5" fill="#8a5a2b"/><path d="M210,172 C206,190 202,200 204,216" fill="none" stroke="#caa46a" stroke-width="2.5"/><path d="M210,172 C214,192 218,202 217,216" fill="none" stroke="#caa46a" stroke-width="2.5"/><text x="210" y="232" font-family="Arial,Helvetica,sans-serif" font-size="12" font-weight="700" fill="#1a1a1a" text-anchor="middle">Raiz</text><path d="M340,172 C337,192 333,204 335,216" fill="none" stroke="#caa46a" stroke-width="2.5"/><line x1="340" y1="172" x2="340" y2="124" stroke="#4bb357" stroke-width="3.5"/><path d="M340,130 q-12,-4 -16,-14 q12,2 16,10 Z" fill="#56c463"/><text x="340" y="232" font-family="Arial,Helvetica,sans-serif" font-size="12" font-weight="700" fill="#1a1a1a" text-anchor="middle">Broto</text><line x1="470" y1="172" x2="470" y2="106" stroke="#3f9b3f" stroke-width="4"/><path d="M470,106 q-18,-2 -22,-16 q18,0 22,12 Z" fill="#56c463"/><path d="M470,120 q18,-2 22,-16 q-18,0 -22,12 Z" fill="#4bb357"/><path d="M470,172 C466,194 462,206 464,218" fill="none" stroke="#caa46a" stroke-width="2.5"/><path d="M470,172 C474,194 478,206 477,218" fill="none" stroke="#caa46a" stroke-width="2.5"/><text x="470" y="238" font-family="Arial,Helvetica,sans-serif" font-size="12" font-weight="700" fill="#1a1a1a" text-anchor="middle">Plântula</text><text x="280" y="32" font-family="Arial,Helvetica,sans-serif" font-size="18" font-weight="700" fill="#1a1a1a" text-anchor="middle">Germinação da Semente</text></svg>
