<?xml version="1.0" encoding="UTF-8"?>
<svg xmlns="http://www.w3.org/2000/svg" viewBox="0 0 480 300" role="img"><rect width="100%" height="100%" fill="#fff"/><g fill="none" stroke="#8fa6bf" stroke-width="1.5"><path d="M360,103 C400,82 80,82 120,103"/><path d="M360,137 C400,158 80,158 120,137"/><path d="M360,103 C400,58 80,58 120,103"/><path d="M360,137 C400,182 80,182 120,137"/><path d="M360,103 C400,34 80,34 120,103"/><path d="M360,137 C400,206 80,206 120,137"/></g><rect x="120" y="97" width="120" height="46" fill="#c0392b"/><rect x="240" y="97" width="120" height="46" fill="#2f6f9f"/><rect x="120" y="97" width="240" height="46" fill="none" stroke="#333" stroke-width="2"/><text x="164" y="127" font-family="Arial,Helvetica,sans-serif" font-size="22" font-weight="700" fill="#fff" text-anchor="middle">N</text><text x="316" y="127" font-family="Arial,Helvetica,sans-serif" font-size="22" font-weight="700" fill="#fff" text-anchor="middle">S</text><text x="164" y="89" font-family="Arial,Helvetica,sans-serif" font-size="11" font-weight="600" fill="#b53b30" text-anchor="middle">Polo Norte</text><text x="316" y="89" font-family="Arial,Helvetica,sans-serif" font-size="11" font-weight="600" fill="#2f6f9f" text-anchor="middle">Polo Sul</text><text x="240" y="40" font-family="Arial,Helvetica,sans-serif" font-size="16" font-weight="700" fill="#1a1a1a" text-anchor="middle">Ímã e Linhas de Campo Magnético</text><circle cx="240" cy="235" r="34" fill="#f4f8fc" stroke="#5b7fa6" stroke-width="2"/><polygon points="240,209 234,235 240,239 246,235" fill="#c0392b"/><polygon points="240,261 234,235 240,231 246,235" fill="#888"/><text x="240" y="195" font-family="Arial,Helvetica,sans-serif" font-size="11" font-weight="700" fill="#1a1a1a" text-anchor="middle">N</text><text x="288" y="239" font-family="Arial,Helvetica,sans-serif" font-size="12" font-weight="700" fill="#1a1a1a" text-anchor="start">Bússola</text></svg>
