<?xml version="1.0" encoding="UTF-8"?>
<svg xmlns="http://www.w3.org/2000/svg" viewBox="0 0 600 250" role="img"><rect width="100%" height="100%" fill="#fff"/><polygon points="110,148 92,178 128,178" fill="#8a6b46"/><line x1="50" y1="130" x2="170" y2="166" stroke="#6b4a2b" stroke-width="6" stroke-linecap="round"/><rect x="32" y="106" width="26" height="26" fill="#c0392b"/><defs><marker id="msr" markerWidth="9" markerHeight="9" refX="6" refY="3" orient="auto"><path d="M0,0 L6,3 L0,6 Z" fill="#2c7a3f"/></marker></defs><line x1="172" y1="190" x2="172" y2="168" stroke="#2c7a3f" stroke-width="3" marker-end="url(#msr)"/><text x="110" y="235" font-family="Arial,Helvetica,sans-serif" font-size="13" font-weight="700" fill="#1a1a1a" text-anchor="middle">Alavanca</text><line x1="300" y1="60" x2="300" y2="74" stroke="#555" stroke-width="3"/><circle cx="300" cy="90" r="18" fill="#cfd8e3" stroke="#555" stroke-width="2"/><circle cx="300" cy="90" r="3" fill="#555"/><path d="M282,90 L282,150" stroke="#6b4a2b" stroke-width="2.5"/><path d="M318,90 L318,130" stroke="#6b4a2b" stroke-width="2.5"/><rect x="306" y="130" width="24" height="24" fill="#c0392b"/><defs><marker id="msd" markerWidth="9" markerHeight="9" refX="6" refY="3" orient="auto"><path d="M0,0 L6,3 L0,6 Z" fill="#2c7a3f"/></marker></defs><line x1="282" y1="150" x2="282" y2="172" stroke="#2c7a3f" stroke-width="3" marker-end="url(#msd)"/><text x="300" y="235" font-family="Arial,Helvetica,sans-serif" font-size="13" font-weight="700" fill="#1a1a1a" text-anchor="middle">Roldana</text><polygon points="410,178 530,178 530,114" fill="#cdbfa6" stroke="#8a6b46" stroke-width="2"/><rect x="476" y="128" width="26" height="26" fill="#c0392b" transform="rotate(-28 489 141)"/><defs><marker id="msi" markerWidth="9" markerHeight="9" refX="6" refY="3" orient="auto"><path d="M0,0 L6,3 L0,6 Z" fill="#2c7a3f"/></marker></defs><line x1="424" y1="170" x2="504" y2="128" stroke="#2c7a3f" stroke-width="3" marker-end="url(#msi)"/><text x="470" y="235" font-family="Arial,Helvetica,sans-serif" font-size="13" font-weight="700" fill="#1a1a1a" text-anchor="middle">Plano inclinado</text><text x="300" y="32" font-family="Arial,Helvetica,sans-serif" font-size="18" font-weight="700" fill="#1a1a1a" text-anchor="middle">Máquinas Simples</text></svg>
