<?xml version="1.0" encoding="UTF-8"?>
<svg xmlns="http://www.w3.org/2000/svg" viewBox="0 0 590 180" role="img"><rect width="100%" height="100%" fill="#fff"/><defs><marker id="me" markerWidth="9" markerHeight="9" refX="6" refY="3" orient="auto"><path d="M0,0 L6,3 L0,6 Z" fill="#555"/></marker></defs><line x1="118" y1="110" x2="187" y2="110" stroke="#555" stroke-width="2.6" marker-end="url(#me)"/><line x1="263" y1="110" x2="337" y2="110" stroke="#555" stroke-width="2.6" marker-end="url(#me)"/><line x1="413" y1="110" x2="472" y2="110" stroke="#555" stroke-width="2.6" marker-end="url(#me)"/><path d="M54,116 Q80,96 106,116 Q80,124 54,116 Z" fill="#6aa84f"/><circle cx="72" cy="113" r="3" fill="#f2e6c2" stroke="#caa46a" stroke-width="0.8"/><circle cx="82" cy="111" r="3" fill="#f2e6c2" stroke="#caa46a" stroke-width="0.8"/><circle cx="90" cy="115" r="3" fill="#f2e6c2" stroke="#caa46a" stroke-width="0.8"/><circle cx="78" cy="117" r="3" fill="#f2e6c2" stroke="#caa46a" stroke-width="0.8"/><text x="80" y="156" font-family="Arial,Helvetica,sans-serif" font-size="13" font-weight="700" fill="#1a1a1a" text-anchor="middle">Ovos</text><circle cx="203" cy="110" r="9" fill="#6aa84f"/><circle cx="212" cy="110" r="9" fill="#7ab648"/><circle cx="221" cy="110" r="9" fill="#6aa84f"/><circle cx="230" cy="110" r="9" fill="#7ab648"/><circle cx="239" cy="110" r="9" fill="#6aa84f"/><circle cx="248" cy="110" r="9" fill="#7ab648"/><circle cx="251" cy="108" r="10" fill="#5c9444"/><circle cx="254" cy="105" r="2" fill="#1a1a1a"/><text x="225" y="156" font-family="Arial,Helvetica,sans-serif" font-size="13" font-weight="700" fill="#1a1a1a" text-anchor="middle">Lagarta</text><line x1="375" y1="80" x2="375" y2="92" stroke="#8a5a2b" stroke-width="2"/><path d="M375,92 Q361,100 365,124 Q375,134 385,124 Q389,100 375,92 Z" fill="#8fae5a"/><path d="M368,104 L382,108 M368,112 L382,116" stroke="#5c7a36" stroke-width="1.2"/><text x="375" y="156" font-family="Arial,Helvetica,sans-serif" font-size="13" font-weight="700" fill="#1a1a1a" text-anchor="middle">Pupa (casulo)</text><ellipse cx="510" cy="110" rx="4" ry="16" fill="#5e3f24"/><path d="M510,104 Q476,80 480,108 Q480,116 510,110 Z" fill="#e8843c"/><path d="M510,112 Q482,118 484,134 Q498,132 510,118 Z" fill="#f0a85c"/><path d="M510,104 Q544,80 540,108 Q540,116 510,110 Z" fill="#e8843c"/><path d="M510,112 Q538,118 536,134 Q522,132 510,118 Z" fill="#f0a85c"/><line x1="510" y1="96" x2="504" y2="86" stroke="#5e3f24" stroke-width="1.5"/><line x1="510" y1="96" x2="516" y2="86" stroke="#5e3f24" stroke-width="1.5"/><text x="510" y="156" font-family="Arial,Helvetica,sans-serif" font-size="13" font-weight="700" fill="#1a1a1a" text-anchor="middle">Borboleta</text><text x="295" y="30" font-family="Arial,Helvetica,sans-serif" font-size="18" font-weight="700" fill="#1a1a1a" text-anchor="middle">Metamorfose da Borboleta</text></svg>
