<?xml version="1.0" encoding="UTF-8"?>
<svg xmlns="http://www.w3.org/2000/svg" viewBox="0 0 540 430" role="img"><rect width="100%" height="100%" fill="#fff"/><circle cx="270" cy="210" r="34" fill="#f6c437"/><line x1="308" y1="210" x2="318" y2="210" stroke="#f6c437" stroke-width="3"/><line x1="302.9089653438087" y1="229" x2="311.56921938165306" y2="234" stroke="#f6c437" stroke-width="3"/><line x1="289" y1="242.90896534380866" x2="294" y2="251.56921938165306" stroke="#f6c437" stroke-width="3"/><line x1="270" y1="248" x2="270" y2="258" stroke="#f6c437" stroke-width="3"/><line x1="251" y1="242.9089653438087" x2="246" y2="251.56921938165306" stroke="#f6c437" stroke-width="3"/><line x1="237.0910346561913" y1="229" x2="228.43078061834694" y2="234" stroke="#f6c437" stroke-width="3"/><line x1="232" y1="210" x2="222" y2="210" stroke="#f6c437" stroke-width="3"/><line x1="237.09103465619134" y1="191" x2="228.43078061834694" y2="186" stroke="#f6c437" stroke-width="3"/><line x1="250.99999999999997" y1="177.09103465619134" x2="245.99999999999997" y2="168.43078061834694" stroke="#f6c437" stroke-width="3"/><line x1="270" y1="172" x2="270" y2="162" stroke="#f6c437" stroke-width="3"/><line x1="289" y1="177.09103465619134" x2="294" y2="168.43078061834694" stroke="#f6c437" stroke-width="3"/><line x1="302.90896534380863" y1="190.99999999999997" x2="311.56921938165306" y2="185.99999999999997" stroke="#f6c437" stroke-width="3"/><text x="270" y="264" font-family="Arial,Helvetica,sans-serif" font-size="13" font-weight="700" fill="#1a1a1a" text-anchor="middle">Sol</text><ellipse cx="270" cy="210" rx="210" ry="150" fill="none" stroke="#bbb" stroke-width="1.5" stroke-dasharray="5 5"/><defs><marker id="ot" markerWidth="9" markerHeight="9" refX="6" refY="3" orient="auto"><path d="M0,0 L6,3 L0,6 Z" fill="#2f7fbf"/></marker><marker id="rot" markerWidth="9" markerHeight="9" refX="6" refY="3" orient="auto"><path d="M0,0 L6,3 L0,6 Z" fill="#c0392b"/></marker></defs><path d="M310,62 A 210 150 0 0 1 360,74" fill="none" stroke="#2f7fbf" stroke-width="2.4" marker-end="url(#ot)"/><circle cx="270" cy="60" r="18" fill="#3b7fd4"/><path d="M258,54 q6,4 0,10 q8,2 12,-2" fill="#3f9b3f"/><line x1="263" y1="40" x2="277" y2="80" stroke="#1a1a1a" stroke-width="1.4"/><text x="270" y="98" font-family="Arial,Helvetica,sans-serif" font-size="12" font-weight="700" text-anchor="middle">Verão</text><circle cx="480" cy="210" r="18" fill="#3b7fd4"/><path d="M468,204 q6,4 0,10 q8,2 12,-2" fill="#3f9b3f"/><line x1="473" y1="190" x2="487" y2="230" stroke="#1a1a1a" stroke-width="1.4"/><text x="480" y="248" font-family="Arial,Helvetica,sans-serif" font-size="12" font-weight="700" text-anchor="middle">Outono</text><circle cx="270" cy="360" r="18" fill="#3b7fd4"/><path d="M258,354 q6,4 0,10 q8,2 12,-2" fill="#3f9b3f"/><line x1="263" y1="340" x2="277" y2="380" stroke="#1a1a1a" stroke-width="1.4"/><text x="270" y="398" font-family="Arial,Helvetica,sans-serif" font-size="12" font-weight="700" text-anchor="middle">Inverno</text><circle cx="60" cy="210" r="18" fill="#3b7fd4"/><path d="M48,204 q6,4 0,10 q8,2 12,-2" fill="#3f9b3f"/><line x1="53" y1="190" x2="67" y2="230" stroke="#1a1a1a" stroke-width="1.4"/><text x="60" y="248" font-family="Arial,Helvetica,sans-serif" font-size="12" font-weight="700" text-anchor="middle">Primavera</text><path d="M82,196 A 16 16 0 1 1 80,194" fill="none" stroke="#c0392b" stroke-width="2" marker-end="url(#rot)"/><text x="270" y="423" font-family="Arial,Helvetica,sans-serif" font-size="12" font-weight="700" fill="#2f7fbf" text-anchor="middle">Translação (1 ano → estações)</text><text x="60" y="166" font-family="Arial,Helvetica,sans-serif" font-size="11" font-weight="700" fill="#c0392b" text-anchor="middle">Rotação (dia e noite)</text><text x="270" y="28" font-family="Arial,Helvetica,sans-serif" font-size="18" font-weight="700" fill="#1a1a1a" text-anchor="middle">Movimentos da Terra</text></svg>
