<?xml version="1.0" encoding="UTF-8"?>
<svg xmlns="http://www.w3.org/2000/svg" viewBox="0 0 620 180" role="img"><rect width="100%" height="100%" fill="#fff"/><ellipse cx="70" cy="95" rx="22" ry="13" fill="#fff" stroke="#444" stroke-width="2"/><circle cx="70" cy="95" r="9" fill="#4a86c8"/><circle cx="70" cy="95" r="4" fill="#1a1a1a"/><path d="M177,79 C203,73 205,103 187,109 C179,111 179,101 184,99 C193,95 191,83 177,87 Z" fill="#f0c6a0" stroke="#b98a5e" stroke-width="1.6"/><path d="M300,77 C296,91 288,101 288,107 C288,113 296,113 300,110 C304,113 312,113 312,107 C312,101 304,91 300,77 Z" fill="#f0c6a0" stroke="#b98a5e" stroke-width="1.6"/><circle cx="295" cy="107" r="2" fill="#9a6b46"/><circle cx="305" cy="107" r="2" fill="#9a6b46"/><path d="M395,89 Q415,77 435,89 Q415,111 395,89 Z" fill="#d98a8a" stroke="#a85c5c" stroke-width="1.6"/><path d="M415,93 Q406,97 407,107 Q415,111 423,107 Q424,97 415,93 Z" fill="#e85f6f"/><g fill="#f0c6a0" stroke="#b98a5e" stroke-width="1.4"><rect x="512" y="93" width="26" height="22" rx="6"/><rect x="513.5" y="79" width="5" height="20" rx="2.5"/><rect x="519.5" y="75" width="5" height="24" rx="2.5"/><rect x="525.5" y="76" width="5" height="23" rx="2.5"/><rect x="531.5" y="80" width="5" height="19" rx="2.5"/><rect x="507" y="97" width="9" height="5" rx="2.5"/></g><text x="70" y="139" font-family="Arial,Helvetica,sans-serif" font-size="13" font-weight="700" fill="#1a1a1a" text-anchor="middle">Visão</text><text x="70" y="155" font-family="Arial,Helvetica,sans-serif" font-size="10" font-weight="600" fill="#777" text-anchor="middle">(Olhos)</text><text x="185" y="139" font-family="Arial,Helvetica,sans-serif" font-size="13" font-weight="700" fill="#1a1a1a" text-anchor="middle">Audição</text><text x="185" y="155" font-family="Arial,Helvetica,sans-serif" font-size="10" font-weight="600" fill="#777" text-anchor="middle">(Orelhas)</text><text x="300" y="139" font-family="Arial,Helvetica,sans-serif" font-size="13" font-weight="700" fill="#1a1a1a" text-anchor="middle">Olfato</text><text x="300" y="155" font-family="Arial,Helvetica,sans-serif" font-size="10" font-weight="600" fill="#777" text-anchor="middle">(Nariz)</text><text x="415" y="139" font-family="Arial,Helvetica,sans-serif" font-size="13" font-weight="700" fill="#1a1a1a" text-anchor="middle">Paladar</text><text x="415" y="155" font-family="Arial,Helvetica,sans-serif" font-size="10" font-weight="600" fill="#777" text-anchor="middle">(Língua)</text><text x="525" y="139" font-family="Arial,Helvetica,sans-serif" font-size="13" font-weight="700" fill="#1a1a1a" text-anchor="middle">Tato</text><text x="525" y="155" font-family="Arial,Helvetica,sans-serif" font-size="10" font-weight="600" fill="#777" text-anchor="middle">(Pele / mãos)</text><text x="300" y="32" font-family="Arial,Helvetica,sans-serif" font-size="18" font-weight="700" fill="#1a1a1a" text-anchor="middle">Órgãos dos Sentidos</text></svg>
