<?xml version="1.0" encoding="UTF-8"?>
<svg xmlns="http://www.w3.org/2000/svg" viewBox="0 0 360 420" role="img"><rect width="100%" height="100%" fill="#fff"/><rect x="0" y="300" width="360" height="110" fill="#caa472"/><path d="M150,300 C140,330 100,340 90,385" fill="none" stroke="#8a5a2b" stroke-width="3"/><path d="M150,300 C160,330 195,345 208,388" fill="none" stroke="#8a5a2b" stroke-width="3"/><path d="M150,300 L150,395" stroke="#8a5a2b" stroke-width="3"/><line x1="150" y1="300" x2="150" y2="110" stroke="#3f9b3f" stroke-width="7"/><ellipse cx="112" cy="220" rx="34" ry="15" fill="#4bb357" transform="rotate(-25 112 220)"/><ellipse cx="188" cy="180" rx="34" ry="15" fill="#4bb357" transform="rotate(25 188 180)"/><circle cx="180" cy="250" r="12" fill="#e8643c"/><g><ellipse cx="166" cy="110" rx="11" ry="7" fill="#e86aa0" transform="rotate(0 166 110)"/><ellipse cx="158" cy="123.85640646055101" rx="11" ry="7" fill="#e86aa0" transform="rotate(60 158 123.85640646055101)"/><ellipse cx="142" cy="123.85640646055101" rx="11" ry="7" fill="#e86aa0" transform="rotate(120 142 123.85640646055101)"/><ellipse cx="134" cy="110" rx="11" ry="7" fill="#e86aa0" transform="rotate(180 134 110)"/><ellipse cx="142" cy="96.14359353944899" rx="11" ry="7" fill="#e86aa0" transform="rotate(240 142 96.14359353944899)"/><ellipse cx="158" cy="96.14359353944899" rx="11" ry="7" fill="#e86aa0" transform="rotate(300 158 96.14359353944899)"/><circle cx="150" cy="110" r="9" fill="#f6c437"/></g><line x1="164" y1="110" x2="246" y2="110" stroke="#999" stroke-width="0.8"/><text x="250" y="114" font-family="Arial,Helvetica,sans-serif" font-size="13" font-weight="600" fill="#1a1a1a" text-anchor="start">Flor</text><line x1="190" y1="250" x2="246" y2="250" stroke="#999" stroke-width="0.8"/><text x="250" y="254" font-family="Arial,Helvetica,sans-serif" font-size="13" font-weight="600" fill="#1a1a1a" text-anchor="start">Fruto</text><line x1="205" y1="180" x2="246" y2="175" stroke="#999" stroke-width="0.8"/><text x="250" y="179" font-family="Arial,Helvetica,sans-serif" font-size="13" font-weight="600" fill="#1a1a1a" text-anchor="start">Folha</text><line x1="150" y1="260" x2="246" y2="300" stroke="#999" stroke-width="0.8"/><text x="250" y="304" font-family="Arial,Helvetica,sans-serif" font-size="13" font-weight="600" fill="#1a1a1a" text-anchor="start">Caule</text><line x1="150" y1="370" x2="246" y2="360" stroke="#999" stroke-width="0.8"/><text x="250" y="364" font-family="Arial,Helvetica,sans-serif" font-size="13" font-weight="600" fill="#1a1a1a" text-anchor="start">Raiz</text><text x="180" y="30" font-family="Arial,Helvetica,sans-serif" font-size="18" font-weight="700" fill="#1a1a1a" text-anchor="middle">Partes da Planta</text></svg>
