<?xml version="1.0" encoding="UTF-8"?>
<svg xmlns="http://www.w3.org/2000/svg" viewBox="0 0 560 290" role="img"><rect width="100%" height="100%" fill="#fff"/><polygon points="96,90 184,90 140,150" fill="none" stroke="#5b7fa6" stroke-width="2"/><line x1="96" y1="90" x2="184" y2="90" stroke="#b98a5e" stroke-width="2.5"/><circle cx="126" cy="104" r="3.5" fill="#9a6b46"/><circle cx="142" cy="100" r="3.5" fill="#9a6b46"/><circle cx="154" cy="106" r="3.5" fill="#9a6b46"/><circle cx="138" cy="112" r="3.5" fill="#9a6b46"/><line x1="140" y1="150" x2="140" y2="186" stroke="#7bbbe4" stroke-width="2.5"/><path d="M106,190 L174,190 L168,234 L112,234 Z" fill="none" stroke="#5b7fa6" stroke-width="2"/><path d="M109,212 L171,212 L168,234 L112,234 Z" fill="#9ad0f0"/><text x="140" y="255" font-family="Arial,Helvetica,sans-serif" font-size="13" font-weight="700" fill="#1a1a1a" text-anchor="middle">Filtração</text><text x="140" y="272" font-family="Arial,Helvetica,sans-serif" font-size="10" font-weight="600" fill="#777" text-anchor="middle">(filtro retém o sólido)</text><path d="M366,90 L434,90 L430,230 L370,230 Z" fill="none" stroke="#5b7fa6" stroke-width="2"/><path d="M367,150 L433,150 L432,172 L368,172 Z" fill="#f0d77a"/><path d="M368,172 L432,172 L430,230 L370,230 Z" fill="#9ad0f0"/><text x="440" y="160" font-family="Arial,Helvetica,sans-serif" font-size="10" font-weight="600" fill="#9a7a1a" text-anchor="start">óleo</text><text x="440" y="200" font-family="Arial,Helvetica,sans-serif" font-size="10" font-weight="600" fill="#2f7fbf" text-anchor="start">água</text><text x="400" y="255" font-family="Arial,Helvetica,sans-serif" font-size="13" font-weight="700" fill="#1a1a1a" text-anchor="middle">Decantação</text><text x="400" y="272" font-family="Arial,Helvetica,sans-serif" font-size="10" font-weight="600" fill="#777" text-anchor="middle">(líquidos se separam)</text><text x="280" y="32" font-family="Arial,Helvetica,sans-serif" font-size="18" font-weight="700" fill="#1a1a1a" text-anchor="middle">Separação de Misturas</text></svg>
