<?xml version="1.0" encoding="UTF-8"?>
<svg xmlns="http://www.w3.org/2000/svg" viewBox="0 0 580 270" role="img"><rect width="100%" height="100%" fill="#fff"/><rect x="50" y="70" width="180" height="130" rx="4" fill="none" stroke="#444" stroke-width="3"/><rect x="120" y="58" width="40" height="24" fill="#fff"/><circle cx="110" cy="70" r="13" fill="#fff3c4" stroke="#c9a227" stroke-width="2"/><path d="M104,64 L116,76 M116,64 L104,76" stroke="#c9a227" stroke-width="1.4"/><circle cx="170" cy="70" r="13" fill="#fff3c4" stroke="#c9a227" stroke-width="2"/><path d="M164,64 L176,76 M176,64 L164,76" stroke="#c9a227" stroke-width="1.4"/><rect x="124" y="188" width="32" height="24" fill="#fff"/><line x1="133" y1="188" x2="133" y2="212" stroke="#c0392b" stroke-width="4"/><line x1="145" y1="193" x2="145" y2="207" stroke="#c0392b" stroke-width="4"/><text x="140" y="235" font-family="Arial,Helvetica,sans-serif" font-size="13" font-weight="700" fill="#1a1a1a" text-anchor="middle">Série</text><text x="140" y="252" font-family="Arial,Helvetica,sans-serif" font-size="10" font-weight="600" fill="#999" text-anchor="middle">(mesmo caminho)</text><rect x="320" y="70" width="190" height="130" rx="4" fill="none" stroke="#444" stroke-width="3"/><line x1="380" y1="70" x2="380" y2="200" stroke="#444" stroke-width="3"/><line x1="450" y1="70" x2="450" y2="200" stroke="#444" stroke-width="3"/><rect x="367" y="123" width="26" height="24" fill="#fff"/><circle cx="380" cy="135" r="13" fill="#fff3c4" stroke="#c9a227" stroke-width="2"/><path d="M374,129 L386,141 M386,129 L374,141" stroke="#c9a227" stroke-width="1.4"/><rect x="437" y="123" width="26" height="24" fill="#fff"/><circle cx="450" cy="135" r="13" fill="#fff3c4" stroke="#c9a227" stroke-width="2"/><path d="M444,129 L456,141 M456,129 L444,141" stroke="#c9a227" stroke-width="1.4"/><rect x="400" y="188" width="30" height="24" fill="#fff"/><line x1="408" y1="188" x2="408" y2="212" stroke="#c0392b" stroke-width="4"/><line x1="420" y1="193" x2="420" y2="207" stroke="#c0392b" stroke-width="4"/><text x="415" y="235" font-family="Arial,Helvetica,sans-serif" font-size="13" font-weight="700" fill="#1a1a1a" text-anchor="middle">Paralelo</text><text x="415" y="252" font-family="Arial,Helvetica,sans-serif" font-size="10" font-weight="600" fill="#999" text-anchor="middle">(caminhos separados)</text><text x="290" y="30" font-family="Arial,Helvetica,sans-serif" font-size="18" font-weight="700" fill="#1a1a1a" text-anchor="middle">Circuito em Série e em Paralelo</text></svg>
