<?xml version="1.0" encoding="UTF-8"?>
<svg xmlns="http://www.w3.org/2000/svg" viewBox="0 0 440 260" role="img"><rect width="100%" height="100%" fill="#fff"/><rect x="120" y="120" width="200" height="22" rx="4" fill="#9aa6b3" stroke="#6b7785" stroke-width="2"/><path d="M140,120 a13,16 0 1 1 0,22" fill="none" stroke="#b9742e" stroke-width="3"/><path d="M166,120 a13,16 0 1 1 0,22" fill="none" stroke="#b9742e" stroke-width="3"/><path d="M192,120 a13,16 0 1 1 0,22" fill="none" stroke="#b9742e" stroke-width="3"/><path d="M218,120 a13,16 0 1 1 0,22" fill="none" stroke="#b9742e" stroke-width="3"/><path d="M244,120 a13,16 0 1 1 0,22" fill="none" stroke="#b9742e" stroke-width="3"/><path d="M270,120 a13,16 0 1 1 0,22" fill="none" stroke="#b9742e" stroke-width="3"/><path d="M296,120 a13,16 0 1 1 0,22" fill="none" stroke="#b9742e" stroke-width="3"/><line x1="130" y1="118" x2="130" y2="80" stroke="#b9742e" stroke-width="2.5"/><line x1="330" y1="142" x2="330" y2="190" stroke="#b9742e" stroke-width="2.5"/><line x1="130" y1="80" x2="200" y2="80" stroke="#b9742e" stroke-width="2.5"/><line x1="200" y1="190" x2="330" y2="190" stroke="#b9742e" stroke-width="2.5"/><line x1="196" y1="68" x2="196" y2="92" stroke="#c0392b" stroke-width="4"/><line x1="206" y1="74" x2="206" y2="86" stroke="#c0392b" stroke-width="4"/><text x="201" y="200" font-family="Arial,Helvetica,sans-serif" font-size="11" text-anchor="middle">pilha</text><text x="220" y="105" font-family="Arial,Helvetica,sans-serif" font-size="11" text-anchor="middle" fill="#6b7785">fio enrolado no prego</text><text x="220" y="235" font-family="Arial,Helvetica,sans-serif" font-size="11" font-weight="600" fill="#555" text-anchor="middle">A corrente cria um campo magnético (ímã temporário)</text><text x="220" y="30" font-family="Arial,Helvetica,sans-serif" font-size="18" font-weight="700" fill="#1a1a1a" text-anchor="middle">Eletroímã</text></svg>
