<?xml version="1.0" encoding="UTF-8"?>
<svg xmlns="http://www.w3.org/2000/svg" viewBox="0 0 540 220" role="img"><rect width="100%" height="100%" fill="#fff"/><rect x="40" y="90" width="65.71428571428571" height="46" fill="#7a5230"/><text x="72.85714285714286" y="160" font-family="Arial,Helvetica,sans-serif" font-size="10" font-weight="600" text-anchor="middle" transform="rotate(35 72.85714285714286 160)">Rádio</text><rect x="105.71428571428571" y="90" width="65.71428571428571" height="46" fill="#b9942e"/><text x="138.57142857142856" y="160" font-family="Arial,Helvetica,sans-serif" font-size="10" font-weight="600" text-anchor="middle" transform="rotate(35 138.57142857142856 160)">Micro-ondas</text><rect x="171.42857142857142" y="90" width="65.71428571428571" height="46" fill="#c0392b"/><text x="204.28571428571428" y="160" font-family="Arial,Helvetica,sans-serif" font-size="10" font-weight="600" text-anchor="middle" transform="rotate(35 204.28571428571428 160)">Infra-vermelho</text><rect x="237.1428571428571" y="90" width="65.71428571428571" height="46" fill="#2c9e4f"/><text x="269.99999999999994" y="160" font-family="Arial,Helvetica,sans-serif" font-size="10" font-weight="600" text-anchor="middle" transform="rotate(35 269.99999999999994 160)">Visível</text><rect x="302.85714285714283" y="90" width="65.71428571428571" height="46" fill="#5b54c0"/><text x="335.71428571428567" y="160" font-family="Arial,Helvetica,sans-serif" font-size="10" font-weight="600" text-anchor="middle" transform="rotate(35 335.71428571428567 160)">Ultra-violeta</text><rect x="368.57142857142856" y="90" width="65.71428571428571" height="46" fill="#2f6f9f"/><text x="401.4285714285714" y="160" font-family="Arial,Helvetica,sans-serif" font-size="10" font-weight="600" text-anchor="middle" transform="rotate(35 401.4285714285714 160)">Raios X</text><rect x="434.2857142857142" y="90" width="65.71428571428571" height="46" fill="#5b2c83"/><text x="467.14285714285705" y="160" font-family="Arial,Helvetica,sans-serif" font-size="10" font-weight="600" text-anchor="middle" transform="rotate(35 467.14285714285705 160)">Raios Gama</text><defs><marker id="ee" markerWidth="9" markerHeight="9" refX="7" refY="3" orient="auto"><path d="M0,0 L7,3 L0,6 Z" fill="#333"/></marker></defs><line x1="40" y1="78" x2="500" y2="78" stroke="#333" stroke-width="1.5" marker-end="url(#ee)"/><text x="70" y="70" font-family="Arial,Helvetica,sans-serif" font-size="9" font-weight="600" fill="#777" text-anchor="start">menor energia</text><text x="470" y="70" font-family="Arial,Helvetica,sans-serif" font-size="9" font-weight="600" fill="#777" text-anchor="end">maior energia</text><text x="270" y="30" font-family="Arial,Helvetica,sans-serif" font-size="18" font-weight="700" fill="#1a1a1a" text-anchor="middle">Espectro Eletromagnético</text></svg>
