<?xml version="1.0" encoding="UTF-8"?>
<svg xmlns="http://www.w3.org/2000/svg" viewBox="0 0 560 310" role="img"><rect width="100%" height="100%" fill="#fff"/><defs><marker id="ec" markerWidth="9" markerHeight="9" refX="7" refY="3" orient="auto"><path d="M0,0 L7,3 L0,6 Z" fill="#2f7fbf"/></marker></defs><path d="M178,70 Q132,170 178,270" fill="none" stroke="#444" stroke-width="3"/><line x1="40" y1="170" x2="260" y2="170" stroke="#bbb" stroke-width="1"/><line x1="40" y1="130" x2="160" y2="130" stroke="#2f7fbf" stroke-width="2"/><line x1="40" y1="170" x2="160" y2="170" stroke="#2f7fbf" stroke-width="2"/><line x1="40" y1="210" x2="160" y2="210" stroke="#2f7fbf" stroke-width="2"/><line x1="160" y1="130" x2="220" y2="170" stroke="#2f7fbf" stroke-width="2" marker-end="url(#ec)"/><line x1="160" y1="210" x2="220" y2="170" stroke="#2f7fbf" stroke-width="2" marker-end="url(#ec)"/><circle cx="220" cy="170" r="3.5" fill="#c0392b"/><text x="150" y="290" font-family="Arial,Helvetica,sans-serif" font-size="12" font-weight="700" text-anchor="middle">Côncavo</text><path d="M392,70 Q438,170 392,270" fill="none" stroke="#444" stroke-width="3"/><line x1="310" y1="170" x2="500" y2="170" stroke="#bbb" stroke-width="1"/><line x1="320" y1="130" x2="408" y2="130" stroke="#2f7fbf" stroke-width="2"/><line x1="408" y1="130" x2="330" y2="102" stroke="#2f7fbf" stroke-width="2" marker-end="url(#ec)"/><line x1="320" y1="170" x2="408" y2="170" stroke="#2f7fbf" stroke-width="2"/><line x1="408" y1="170" x2="330" y2="170" stroke="#2f7fbf" stroke-width="2" marker-end="url(#ec)"/><line x1="320" y1="210" x2="408" y2="210" stroke="#2f7fbf" stroke-width="2"/><line x1="408" y1="210" x2="330" y2="238" stroke="#2f7fbf" stroke-width="2" marker-end="url(#ec)"/><text x="420" y="290" font-family="Arial,Helvetica,sans-serif" font-size="12" font-weight="700" text-anchor="middle">Convexo</text><text x="280" y="30" font-family="Arial,Helvetica,sans-serif" font-size="18" font-weight="700" fill="#1a1a1a" text-anchor="middle">Espelhos Curvos</text></svg>
