<?xml version="1.0" encoding="UTF-8"?>
<svg xmlns="http://www.w3.org/2000/svg" viewBox="0 0 540 230" role="img"><rect width="100%" height="100%" fill="#fff"/><defs><marker id="le" markerWidth="9" markerHeight="9" refX="7" refY="3" orient="auto"><path d="M0,0 L7,3 L0,6 Z" fill="#2f7fbf"/></marker></defs><line x1="40" y1="120" x2="250" y2="120" stroke="#bbb" stroke-width="1"/><path d="M140,60 Q158,120 140,180 Q122,120 140,60 Z" fill="#cfe7f7" stroke="#5b7fa6" stroke-width="2"/><line x1="50" y1="84" x2="140" y2="84" stroke="#2f7fbf" stroke-width="2"/><line x1="140" y1="84" x2="210" y2="120" stroke="#2f7fbf" stroke-width="2" marker-end="url(#le)"/><line x1="50" y1="120" x2="140" y2="120" stroke="#2f7fbf" stroke-width="2"/><line x1="140" y1="120" x2="210" y2="120" stroke="#2f7fbf" stroke-width="2" marker-end="url(#le)"/><line x1="50" y1="156" x2="140" y2="156" stroke="#2f7fbf" stroke-width="2"/><line x1="140" y1="156" x2="210" y2="120" stroke="#2f7fbf" stroke-width="2" marker-end="url(#le)"/><circle cx="210" cy="120" r="3.5" fill="#c0392b"/><text x="210" y="144" font-family="Arial,Helvetica,sans-serif" font-size="12" font-weight="700" fill="#1a1a1a" text-anchor="middle" font-style="italic">F</text><text x="140" y="205" font-family="Arial,Helvetica,sans-serif" font-size="12" font-weight="700" fill="#1a1a1a" text-anchor="middle">Convergente</text><line x1="300" y1="120" x2="500" y2="120" stroke="#bbb" stroke-width="1"/><path d="M388,60 Q400,120 388,180 L412,180 Q400,120 412,60 Z" fill="#cfe7f7" stroke="#5b7fa6" stroke-width="2"/><line x1="310" y1="84" x2="400" y2="84" stroke="#2f7fbf" stroke-width="2"/><line x1="400" y1="84" x2="480" y2="55.2" stroke="#2f7fbf" stroke-width="2" marker-end="url(#le)"/><line x1="310" y1="120" x2="400" y2="120" stroke="#2f7fbf" stroke-width="2"/><line x1="400" y1="120" x2="480" y2="120" stroke="#2f7fbf" stroke-width="2" marker-end="url(#le)"/><line x1="310" y1="156" x2="400" y2="156" stroke="#2f7fbf" stroke-width="2"/><line x1="400" y1="156" x2="480" y2="184.8" stroke="#2f7fbf" stroke-width="2" marker-end="url(#le)"/><text x="400" y="205" font-family="Arial,Helvetica,sans-serif" font-size="12" font-weight="700" fill="#1a1a1a" text-anchor="middle">Divergente</text><text x="270" y="30" font-family="Arial,Helvetica,sans-serif" font-size="18" font-weight="700" fill="#1a1a1a" text-anchor="middle">Lentes</text></svg>
