<?xml version="1.0" encoding="UTF-8"?>
<svg xmlns="http://www.w3.org/2000/svg" viewBox="0 0 580 280" role="img"><rect width="100%" height="100%" fill="#fff"/><defs><marker id="on" markerWidth="9" markerHeight="9" refX="7" refY="3" orient="auto"><path d="M0,0 L7,3 L0,6 Z" fill="#c0392b"/></marker></defs><line x1="50" y1="200" x2="540" y2="200" stroke="#bbb" stroke-width="1.2" stroke-dasharray="4 4"/><path d="M60,200 L60,200.0 L64,194.8 L68,189.6 L72,184.5 L76,179.7 L80,175.0 L84,170.6 L88,166.5 L92,162.8 L96,159.5 L100,156.7 L104,154.3 L108,152.4 L112,151.1 L116,150.3 L120,150.0 L124,150.3 L128,151.1 L132,152.4 L136,154.3 L140,156.7 L144,159.5 L148,162.8 L152,166.5 L156,170.6 L160,175.0 L164,179.7 L168,184.5 L172,189.6 L176,194.8 L180,200.0 L184,205.2 L188,210.4 L192,215.5 L196,220.3 L200,225.0 L204,229.4 L208,233.5 L212,237.2 L216,240.5 L220,243.3 L224,245.7 L228,247.6 L232,248.9 L236,249.7 L240,250.0 L244,249.7 L248,248.9 L252,247.6 L256,245.7 L260,243.3 L264,240.5 L268,237.2 L272,233.5 L276,229.4 L280,225.0 L284,220.3 L288,215.5 L292,210.4 L296,205.2 L300,200.0 L304,194.8 L308,189.6 L312,184.5 L316,179.7 L320,175.0 L324,170.6 L328,166.5 L332,162.8 L336,159.5 L340,156.7 L344,154.3 L348,152.4 L352,151.1 L356,150.3 L360,150.0 L364,150.3 L368,151.1 L372,152.4 L376,154.3 L380,156.7 L384,159.5 L388,162.8 L392,166.5 L396,170.6 L400,175.0 L404,179.7 L408,184.5 L412,189.6 L416,194.8 L420,200.0 L424,205.2 L428,210.4 L432,215.5 L436,220.3 L440,225.0 L444,229.4 L448,233.5 L452,237.2 L456,240.5 L460,243.3 L464,245.7 L468,247.6 L472,248.9 L476,249.7 L480,250.0 L484,249.7 L488,248.9 L492,247.6 L496,245.7 L500,243.3 L504,240.5 L508,237.2 L512,233.5 L516,229.4 L520,225.0 L524,220.3 L528,215.5 L532,210.4 L536,205.2 L540,200.0" fill="none" stroke="#2f6f9f" stroke-width="3"/><text x="120" y="140" font-family="Arial,Helvetica,sans-serif" font-size="11" font-weight="600" fill="#2c7a3f" text-anchor="middle">crista</text><text x="240" y="272" font-family="Arial,Helvetica,sans-serif" font-size="11" font-weight="600" fill="#7a3a2e" text-anchor="middle">vale</text><line x1="120" y1="200" x2="120" y2="150" stroke="#c0392b" stroke-width="2" marker-end="url(#on)"/><text x="150" y="175" font-family="Arial,Helvetica,sans-serif" font-size="11" font-weight="600" fill="#c0392b" text-anchor="start">amplitude</text><line x1="120" y1="124" x2="360" y2="124" stroke="#555" stroke-width="2" marker-end="url(#on)" marker-start="url(#on)"/><text x="240" y="118" font-family="Arial,Helvetica,sans-serif" font-size="11" font-weight="600" fill="#1a1a1a" text-anchor="middle">comprimento de onda (λ)</text><text x="290" y="30" font-family="Arial,Helvetica,sans-serif" font-size="18" font-weight="700" fill="#1a1a1a" text-anchor="middle">Partes de uma Onda</text></svg>
