<?xml version="1.0" encoding="UTF-8"?>
<svg xmlns="http://www.w3.org/2000/svg" viewBox="0 0 500 290" role="img"><rect width="100%" height="100%" fill="#fff"/><defs><marker id="rl" markerWidth="9" markerHeight="9" refX="7" refY="3" orient="auto"><path d="M0,0 L7,3 L0,6 Z" fill="#e0a92e"/></marker></defs><line x1="80" y1="210" x2="420" y2="210" stroke="#444" stroke-width="3"/><line x1="90" y1="210" x2="81" y2="220" stroke="#888" stroke-width="1.5"/><line x1="106" y1="210" x2="97" y2="220" stroke="#888" stroke-width="1.5"/><line x1="122" y1="210" x2="113" y2="220" stroke="#888" stroke-width="1.5"/><line x1="138" y1="210" x2="129" y2="220" stroke="#888" stroke-width="1.5"/><line x1="154" y1="210" x2="145" y2="220" stroke="#888" stroke-width="1.5"/><line x1="170" y1="210" x2="161" y2="220" stroke="#888" stroke-width="1.5"/><line x1="186" y1="210" x2="177" y2="220" stroke="#888" stroke-width="1.5"/><line x1="202" y1="210" x2="193" y2="220" stroke="#888" stroke-width="1.5"/><line x1="218" y1="210" x2="209" y2="220" stroke="#888" stroke-width="1.5"/><line x1="234" y1="210" x2="225" y2="220" stroke="#888" stroke-width="1.5"/><line x1="250" y1="210" x2="241" y2="220" stroke="#888" stroke-width="1.5"/><line x1="266" y1="210" x2="257" y2="220" stroke="#888" stroke-width="1.5"/><line x1="282" y1="210" x2="273" y2="220" stroke="#888" stroke-width="1.5"/><line x1="298" y1="210" x2="289" y2="220" stroke="#888" stroke-width="1.5"/><line x1="314" y1="210" x2="305" y2="220" stroke="#888" stroke-width="1.5"/><line x1="330" y1="210" x2="321" y2="220" stroke="#888" stroke-width="1.5"/><line x1="346" y1="210" x2="337" y2="220" stroke="#888" stroke-width="1.5"/><line x1="362" y1="210" x2="353" y2="220" stroke="#888" stroke-width="1.5"/><line x1="378" y1="210" x2="369" y2="220" stroke="#888" stroke-width="1.5"/><line x1="394" y1="210" x2="385" y2="220" stroke="#888" stroke-width="1.5"/><line x1="410" y1="210" x2="401" y2="220" stroke="#888" stroke-width="1.5"/><line x1="250" y1="210" x2="250" y2="60" stroke="#555" stroke-width="1.6" stroke-dasharray="6 4"/><text x="256" y="72" font-family="Arial,Helvetica,sans-serif" font-size="11" font-weight="600" fill="#555" text-anchor="start">normal</text><line x1="100" y1="90" x2="250" y2="210" stroke="#e0a92e" stroke-width="3" marker-end="url(#rl)"/><text x="150" y="120" font-family="Arial,Helvetica,sans-serif" font-size="11" font-weight="600" fill="#c98f1e" text-anchor="start">raio incidente</text><line x1="250" y1="210" x2="400" y2="90" stroke="#e0a92e" stroke-width="3" marker-end="url(#rl)"/><text x="330" y="120" font-family="Arial,Helvetica,sans-serif" font-size="11" font-weight="600" fill="#c98f1e" text-anchor="end">raio refletido</text><path d="M 204,210 A 46 46 0 0 0 218,177" fill="none" stroke="#999" stroke-width="1.3"/><text x="210" y="188" font-family="Arial,Helvetica,sans-serif" font-size="12" font-weight="600" fill="#1a1a1a" text-anchor="middle" font-style="italic">θi</text><path d="M 282,177 A 46 46 0 0 0 296,210" fill="none" stroke="#999" stroke-width="1.3"/><text x="290" y="188" font-family="Arial,Helvetica,sans-serif" font-size="12" font-weight="600" fill="#1a1a1a" text-anchor="middle" font-style="italic">θr</text><text x="250" y="244" font-family="Arial,Helvetica,sans-serif" font-size="13" font-weight="700" fill="#1a1a1a" text-anchor="middle">θi = θr</text><text x="250" y="30" font-family="Arial,Helvetica,sans-serif" font-size="18" font-weight="700" fill="#1a1a1a" text-anchor="middle">Reflexão da Luz</text></svg>
