<?xml version="1.0" encoding="UTF-8"?>
<svg xmlns="http://www.w3.org/2000/svg" viewBox="0 0 520 280" role="img"><rect width="100%" height="100%" fill="#fff"/><circle cx="90" cy="160" r="26" fill="#e9c46a" stroke="#b9942e" stroke-width="2"/><text x="90" y="210" font-family="Arial,Helvetica,sans-serif" font-size="11" font-weight="600" fill="#1a1a1a" text-anchor="middle">fonte sonora</text><path d="M130,110 A 50 50 0 0 1 130,210" fill="none" stroke="#2f7fbf" stroke-width="2.4" opacity="1"/><path d="M130,70 A 90 90 0 0 1 130,250" fill="none" stroke="#2f7fbf" stroke-width="2.1999999999999997" opacity="0.87"/><path d="M130,30 A 130 130 0 0 1 130,290" fill="none" stroke="#2f7fbf" stroke-width="2" opacity="0.74"/><path d="M130,-10 A 170 170 0 0 1 130,330" fill="none" stroke="#2f7fbf" stroke-width="1.7999999999999998" opacity="0.61"/><path d="M130,-50 A 210 210 0 0 1 130,370" fill="none" stroke="#2f7fbf" stroke-width="1.5999999999999999" opacity="0.48"/><circle cx="430" cy="160" r="24" fill="#f0c6a0" stroke="#b98a5e" stroke-width="2"/><text x="430" y="210" font-family="Arial,Helvetica,sans-serif" font-size="11" font-weight="600" fill="#1a1a1a" text-anchor="middle">ouvinte</text><text x="280" y="250" font-family="Arial,Helvetica,sans-serif" font-size="12" font-weight="600" fill="#555" text-anchor="middle">O som se propaga em ondas pelo ar</text><text x="270" y="30" font-family="Arial,Helvetica,sans-serif" font-size="18" font-weight="700" fill="#1a1a1a" text-anchor="middle">Propagação do Som</text></svg>
