<?xml version="1.0" encoding="UTF-8"?>
<svg xmlns="http://www.w3.org/2000/svg" viewBox="0 0 560 230" role="img"><rect width="100%" height="100%" fill="#fff"/><defs><marker id="tc" markerWidth="9" markerHeight="9" refX="7" refY="3" orient="auto"><path d="M0,0 L7,3 L0,6 Z" fill="#c0392b"/></marker></defs><rect x="40" y="120" width="120" height="20" fill="#c0392b"/><rect x="160" y="120" width="60" height="20" fill="#e8843c"/><path d="M34,150 q8,-14 16,0" fill="none" stroke="#e0a92e" stroke-width="3"/><text x="130" y="175" font-family="Arial,Helvetica,sans-serif" font-size="12" font-weight="700" fill="#1a1a1a" text-anchor="middle">Condução</text><text x="130" y="192" font-family="Arial,Helvetica,sans-serif" font-size="9" font-weight="600" fill="#999" text-anchor="middle">(no sólido)</text><path d="M250,150 h80 v-40 h-80 Z" fill="#cfe7f7" stroke="#5b7fa6" stroke-width="2"/><path d="M270,145 q-10,-20 10,-30 M310,115 q10,20 -10,30" fill="none" stroke="#c0392b" stroke-width="2" marker-end="url(#tc)"/><text x="290" y="175" font-family="Arial,Helvetica,sans-serif" font-size="12" font-weight="700" fill="#1a1a1a" text-anchor="middle">Convecção</text><text x="290" y="192" font-family="Arial,Helvetica,sans-serif" font-size="9" font-weight="600" fill="#999" text-anchor="middle">(líquidos/gases)</text><circle cx="470" cy="115" r="22" fill="#f6c437"/><line x1="494" y1="115" x2="506" y2="115" stroke="#f6c437" stroke-width="2.5"/><line x1="486.97056274847716" y1="131.97056274847714" x2="495.4558441227157" y2="140.45584412271572" stroke="#f6c437" stroke-width="2.5"/><line x1="470" y1="139" x2="470" y2="151" stroke="#f6c437" stroke-width="2.5"/><line x1="453.02943725152284" y1="131.97056274847714" x2="444.5441558772843" y2="140.45584412271572" stroke="#f6c437" stroke-width="2.5"/><line x1="446" y1="115" x2="434" y2="115" stroke="#f6c437" stroke-width="2.5"/><line x1="453.02943725152284" y1="98.02943725152286" x2="444.5441558772843" y2="89.54415587728428" stroke="#f6c437" stroke-width="2.5"/><line x1="470" y1="91" x2="470" y2="79" stroke="#f6c437" stroke-width="2.5"/><line x1="486.97056274847716" y1="98.02943725152286" x2="495.4558441227157" y2="89.54415587728428" stroke="#f6c437" stroke-width="2.5"/><text x="470" y="175" font-family="Arial,Helvetica,sans-serif" font-size="12" font-weight="700" fill="#1a1a1a" text-anchor="middle">Radiação</text><text x="470" y="192" font-family="Arial,Helvetica,sans-serif" font-size="9" font-weight="600" fill="#999" text-anchor="middle">(sem contato)</text><text x="280" y="30" font-family="Arial,Helvetica,sans-serif" font-size="18" font-weight="700" fill="#1a1a1a" text-anchor="middle">Transmissão de Calor</text></svg>
