<?xml version="1.0" encoding="UTF-8"?>
<svg xmlns="http://www.w3.org/2000/svg" viewBox="0 0 700 340" role="img"><rect width="100%" height="100%" fill="#fff"/><text x="350" y="28" font-family="Arial,Helvetica,sans-serif" font-size="16" font-weight="800" fill="#1a1917" text-anchor="middle">Árvore genealógica</text><text x="350" y="47" font-family="Arial,Helvetica,sans-serif" font-size="11.5" font-weight="500" fill="#6b6764" text-anchor="middle">Escreva o nome de cada pessoa da sua família</text><rect x="46" y="74" width="128" height="46" rx="8" fill="#fff" stroke="#c9c4bd" stroke-width="1.5" stroke-dasharray="5 4"/><text x="110" y="68" font-family="Arial,Helvetica,sans-serif" font-size="9.5" font-weight="600" fill="#6b6764" text-anchor="middle">Avó / Avô</text><rect x="196" y="74" width="128" height="46" rx="8" fill="#fff" stroke="#c9c4bd" stroke-width="1.5" stroke-dasharray="5 4"/><text x="260" y="68" font-family="Arial,Helvetica,sans-serif" font-size="9.5" font-weight="600" fill="#6b6764" text-anchor="middle">Avó / Avô</text><rect x="346" y="74" width="128" height="46" rx="8" fill="#fff" stroke="#c9c4bd" stroke-width="1.5" stroke-dasharray="5 4"/><text x="410" y="68" font-family="Arial,Helvetica,sans-serif" font-size="9.5" font-weight="600" fill="#6b6764" text-anchor="middle">Avó / Avô</text><rect x="496" y="74" width="128" height="46" rx="8" fill="#fff" stroke="#c9c4bd" stroke-width="1.5" stroke-dasharray="5 4"/><text x="560" y="68" font-family="Arial,Helvetica,sans-serif" font-size="9.5" font-weight="600" fill="#6b6764" text-anchor="middle">Avó / Avô</text><rect x="121" y="176" width="128" height="46" rx="8" fill="#fff" stroke="#c9c4bd" stroke-width="1.5" stroke-dasharray="5 4"/><text x="185" y="170" font-family="Arial,Helvetica,sans-serif" font-size="9.5" font-weight="600" fill="#6b6764" text-anchor="middle">Mãe / Pai</text><rect x="421" y="176" width="128" height="46" rx="8" fill="#fff" stroke="#c9c4bd" stroke-width="1.5" stroke-dasharray="5 4"/><text x="485" y="170" font-family="Arial,Helvetica,sans-serif" font-size="9.5" font-weight="600" fill="#6b6764" text-anchor="middle">Mãe / Pai</text><rect x="271" y="272" width="128" height="46" rx="8" fill="#fff" stroke="#c8963e" stroke-width="2"/><text x="335" y="266" font-family="Arial,Helvetica,sans-serif" font-size="10.5" font-weight="800" fill="#c8963e" text-anchor="middle">Eu</text><line x1="110" y1="120" x2="110" y2="142" stroke="#c9c4bd" stroke-width="1.5"/><line x1="260" y1="120" x2="260" y2="142" stroke="#c9c4bd" stroke-width="1.5"/><line x1="110" y1="142" x2="260" y2="142" stroke="#c9c4bd" stroke-width="1.5"/><line x1="185" y1="142" x2="185" y2="176" stroke="#c9c4bd" stroke-width="1.5"/><line x1="410" y1="120" x2="410" y2="142" stroke="#c9c4bd" stroke-width="1.5"/><line x1="560" y1="120" x2="560" y2="142" stroke="#c9c4bd" stroke-width="1.5"/><line x1="410" y1="142" x2="560" y2="142" stroke="#c9c4bd" stroke-width="1.5"/><line x1="485" y1="142" x2="485" y2="176" stroke="#c9c4bd" stroke-width="1.5"/><line x1="185" y1="222" x2="185" y2="240" stroke="#c9c4bd" stroke-width="1.5"/><line x1="485" y1="222" x2="485" y2="240" stroke="#c9c4bd" stroke-width="1.5"/><line x1="185" y1="240" x2="485" y2="240" stroke="#c9c4bd" stroke-width="1.5"/><line x1="335" y1="240" x2="335" y2="272" stroke="#c9c4bd" stroke-width="1.5"/></svg>