<?xml version="1.0" encoding="UTF-8"?>
<svg xmlns="http://www.w3.org/2000/svg" viewBox="0 0 720 300" role="img"><rect width="100%" height="100%" fill="#fff"/><text x="360" y="28" font-family="Arial,Helvetica,sans-serif" font-size="16" font-weight="800" fill="#1a1917" text-anchor="middle">Fontes históricas</text><text x="360" y="47" font-family="Arial,Helvetica,sans-serif" font-size="11.5" font-weight="500" fill="#6b6764" text-anchor="middle">Vestígios que ajudam a conhecer o passado</text><rect x="27" y="80" width="150" height="150" rx="10" fill="#fff" stroke="#c8963e" stroke-width="2"/><rect x="27" y="80" width="150" height="34" rx="10" fill="#c8963e"/><rect x="27" y="102" width="150" height="12" fill="#c8963e"/><text x="102" y="103" font-family="Arial,Helvetica,sans-serif" font-size="12.5" font-weight="800" fill="#fff" text-anchor="middle">Escritas</text><rect x="82" y="130" width="40" height="48" rx="3" fill="#fff" stroke="#c8963e" stroke-width="2"/><line x1="90" y1="140" x2="114" y2="140" stroke="#c8963e" stroke-width="1.6"/><line x1="90" y1="151" x2="114" y2="151" stroke="#c8963e" stroke-width="1.6"/><line x1="90" y1="162" x2="114" y2="162" stroke="#c8963e" stroke-width="1.6"/><line x1="90" y1="173" x2="114" y2="173" stroke="#c8963e" stroke-width="1.6"/><text x="102" y="196" font-family="Arial,Helvetica,sans-serif" font-size="10.5" font-weight="500" fill="#6b6764" text-anchor="middle">cartas, jornais,</text><text x="102" y="209" font-family="Arial,Helvetica,sans-serif" font-size="10.5" font-weight="500" fill="#6b6764" text-anchor="middle">leis, diários</text><rect x="199" y="80" width="150" height="150" rx="10" fill="#fff" stroke="#2d6e6e" stroke-width="2"/><rect x="199" y="80" width="150" height="34" rx="10" fill="#2d6e6e"/><rect x="199" y="102" width="150" height="12" fill="#2d6e6e"/><text x="274" y="103" font-family="Arial,Helvetica,sans-serif" font-size="12.5" font-weight="800" fill="#fff" text-anchor="middle">Orais</text><path d="M250,132 h48 a6,6 0 0 1 6,6 v24 a6,6 0 0 1 -6,6 h-28 l-12,12 v-12 h-8 a6,6 0 0 1 -6,-6 v-24 a6,6 0 0 1 6,-6 z" fill="#fff" stroke="#2d6e6e" stroke-width="2"/><text x="274" y="196" font-family="Arial,Helvetica,sans-serif" font-size="10.5" font-weight="500" fill="#6b6764" text-anchor="middle">entrevistas,</text><text x="274" y="209" font-family="Arial,Helvetica,sans-serif" font-size="10.5" font-weight="500" fill="#6b6764" text-anchor="middle">relatos, canções</text><rect x="371" y="80" width="150" height="150" rx="10" fill="#fff" stroke="#d95f3b" stroke-width="2"/><rect x="371" y="80" width="150" height="34" rx="10" fill="#d95f3b"/><rect x="371" y="102" width="150" height="12" fill="#d95f3b"/><text x="446" y="103" font-family="Arial,Helvetica,sans-serif" font-size="12.5" font-weight="800" fill="#fff" text-anchor="middle">Materiais</text><path d="M430,132 h32 l-5,12 a14,14 0 1 1 -22,0 z" fill="#fff" stroke="#d95f3b" stroke-width="2"/><text x="446" y="196" font-family="Arial,Helvetica,sans-serif" font-size="10.5" font-weight="500" fill="#6b6764" text-anchor="middle">objetos, roupas,</text><text x="446" y="209" font-family="Arial,Helvetica,sans-serif" font-size="10.5" font-weight="500" fill="#6b6764" text-anchor="middle">ferramentas, ruínas</text><rect x="543" y="80" width="150" height="150" rx="10" fill="#fff" stroke="#6c63d4" stroke-width="2"/><rect x="543" y="80" width="150" height="34" rx="10" fill="#6c63d4"/><rect x="543" y="102" width="150" height="12" fill="#6c63d4"/><text x="618" y="103" font-family="Arial,Helvetica,sans-serif" font-size="12.5" font-weight="800" fill="#fff" text-anchor="middle">Iconográficas</text><rect x="594" y="132" width="48" height="40" rx="3" fill="#fff" stroke="#6c63d4" stroke-width="2"/><circle cx="628" cy="142" r="4" fill="#6c63d4"/><path d="M596,170 l14,-18 l10,12 l8,-8 l12,14 z" fill="#6c63d4" opacity=".55"/><text x="618" y="196" font-family="Arial,Helvetica,sans-serif" font-size="10.5" font-weight="500" fill="#6b6764" text-anchor="middle">fotografias,</text><text x="618" y="209" font-family="Arial,Helvetica,sans-serif" font-size="10.5" font-weight="500" fill="#6b6764" text-anchor="middle">pinturas, mapas</text></svg>