<?xml version="1.0" encoding="UTF-8"?>
<svg xmlns="http://www.w3.org/2000/svg" viewBox="0 0 680 320" role="img"><rect width="100%" height="100%" fill="#fff"/><text x="340" y="28" font-family="Arial,Helvetica,sans-serif" font-size="16" font-weight="800" fill="#1a1917" text-anchor="middle">Linha do tempo</text><text x="340" y="47" font-family="Arial,Helvetica,sans-serif" font-size="11.5" font-weight="500" fill="#6b6764" text-anchor="middle">Escreva o acontecimento em cada caixa e a data embaixo</text><defs><marker id="a" viewBox="0 0 10 10" refX="9" refY="5" markerWidth="7" markerHeight="7" orient="auto"><path d="M0,0 L10,5 L0,10 z" fill="#1a1917"/></marker></defs><line x1="50" y1="190" x2="630" y2="190" stroke="#1a1917" stroke-width="3"/><line x1="50" y1="190" x2="632" y2="190" stroke="#1a1917" stroke-width="3" marker-end="url(#a)"/><rect x="58" y="78" width="104" height="76" rx="8" fill="#fff" stroke="#c9c4bd" stroke-width="1.5" stroke-dasharray="5 4"/><line x1="110" y1="178" x2="110" y2="202" stroke="#1a1917" stroke-width="2.5"/><line x1="110" y1="154" x2="110" y2="178" stroke="#c9c4bd" stroke-width="1.2" stroke-dasharray="3 3"/><line x1="68" y1="224" x2="152" y2="224" stroke="#1a1917" stroke-width="1.2"/><text x="110" y="242" font-family="Arial,Helvetica,sans-serif" font-size="10" font-weight="500" fill="#6b6764" text-anchor="middle">data</text><rect x="173" y="78" width="104" height="76" rx="8" fill="#fff" stroke="#c9c4bd" stroke-width="1.5" stroke-dasharray="5 4"/><line x1="225" y1="178" x2="225" y2="202" stroke="#1a1917" stroke-width="2.5"/><line x1="225" y1="154" x2="225" y2="178" stroke="#c9c4bd" stroke-width="1.2" stroke-dasharray="3 3"/><line x1="183" y1="224" x2="267" y2="224" stroke="#1a1917" stroke-width="1.2"/><text x="225" y="242" font-family="Arial,Helvetica,sans-serif" font-size="10" font-weight="500" fill="#6b6764" text-anchor="middle">data</text><rect x="288" y="78" width="104" height="76" rx="8" fill="#fff" stroke="#c9c4bd" stroke-width="1.5" stroke-dasharray="5 4"/><line x1="340" y1="178" x2="340" y2="202" stroke="#1a1917" stroke-width="2.5"/><line x1="340" y1="154" x2="340" y2="178" stroke="#c9c4bd" stroke-width="1.2" stroke-dasharray="3 3"/><line x1="298" y1="224" x2="382" y2="224" stroke="#1a1917" stroke-width="1.2"/><text x="340" y="242" font-family="Arial,Helvetica,sans-serif" font-size="10" font-weight="500" fill="#6b6764" text-anchor="middle">data</text><rect x="403" y="78" width="104" height="76" rx="8" fill="#fff" stroke="#c9c4bd" stroke-width="1.5" stroke-dasharray="5 4"/><line x1="455" y1="178" x2="455" y2="202" stroke="#1a1917" stroke-width="2.5"/><line x1="455" y1="154" x2="455" y2="178" stroke="#c9c4bd" stroke-width="1.2" stroke-dasharray="3 3"/><line x1="413" y1="224" x2="497" y2="224" stroke="#1a1917" stroke-width="1.2"/><text x="455" y="242" font-family="Arial,Helvetica,sans-serif" font-size="10" font-weight="500" fill="#6b6764" text-anchor="middle">data</text><rect x="518" y="78" width="104" height="76" rx="8" fill="#fff" stroke="#c9c4bd" stroke-width="1.5" stroke-dasharray="5 4"/><line x1="570" y1="178" x2="570" y2="202" stroke="#1a1917" stroke-width="2.5"/><line x1="570" y1="154" x2="570" y2="178" stroke="#c9c4bd" stroke-width="1.2" stroke-dasharray="3 3"/><line x1="528" y1="224" x2="612" y2="224" stroke="#1a1917" stroke-width="1.2"/><text x="570" y="242" font-family="Arial,Helvetica,sans-serif" font-size="10" font-weight="500" fill="#6b6764" text-anchor="middle">data</text><text x="628" y="176" font-family="Arial,Helvetica,sans-serif" font-size="10.5" font-weight="600" fill="#6b6764" text-anchor="end">tempo</text></svg>