<?xml version="1.0" encoding="UTF-8"?>
<svg xmlns="http://www.w3.org/2000/svg" viewBox="0 0 680 300" role="img"><rect width="100%" height="100%" fill="#fff"/><text x="340" y="28" font-family="Arial,Helvetica,sans-serif" font-size="16" font-weight="800" fill="#1a1917" text-anchor="middle">Passado, presente e futuro</text><text x="340" y="47" font-family="Arial,Helvetica,sans-serif" font-size="11.5" font-weight="500" fill="#6b6764" text-anchor="middle">Desenhe ou escreva em cada quadro</text><defs><marker id="a" viewBox="0 0 10 10" refX="9" refY="5" markerWidth="7" markerHeight="7" orient="auto"><path d="M0,0 L10,5 L0,10 z" fill="#1a1917"/></marker></defs><rect x="40" y="82" width="190" height="140" rx="10" fill="#fff" stroke="#8d7b66" stroke-width="2"/><rect x="40" y="82" width="190" height="32" rx="10" fill="#8d7b66"/><rect x="40" y="102" width="190" height="12" fill="#8d7b66"/><text x="135" y="104" font-family="Arial,Helvetica,sans-serif" font-size="12.5" font-weight="800" fill="#fff" text-anchor="middle">PASSADO</text><text x="135" y="134" font-family="Arial,Helvetica,sans-serif" font-size="10.5" font-weight="500" fill="#6b6764" text-anchor="middle">o que já aconteceu</text><rect x="245" y="82" width="190" height="140" rx="10" fill="#fff" stroke="#2d6e6e" stroke-width="2"/><rect x="245" y="82" width="190" height="32" rx="10" fill="#2d6e6e"/><rect x="245" y="102" width="190" height="12" fill="#2d6e6e"/><text x="340" y="104" font-family="Arial,Helvetica,sans-serif" font-size="12.5" font-weight="800" fill="#fff" text-anchor="middle">PRESENTE</text><text x="340" y="134" font-family="Arial,Helvetica,sans-serif" font-size="10.5" font-weight="500" fill="#6b6764" text-anchor="middle">o que acontece agora</text><rect x="450" y="82" width="190" height="140" rx="10" fill="#fff" stroke="#6c63d4" stroke-width="2"/><rect x="450" y="82" width="190" height="32" rx="10" fill="#6c63d4"/><rect x="450" y="102" width="190" height="12" fill="#6c63d4"/><text x="545" y="104" font-family="Arial,Helvetica,sans-serif" font-size="12.5" font-weight="800" fill="#fff" text-anchor="middle">FUTURO</text><text x="545" y="134" font-family="Arial,Helvetica,sans-serif" font-size="10.5" font-weight="500" fill="#6b6764" text-anchor="middle">o que ainda vai acontecer</text><line x1="60" y1="252" x2="622" y2="252" stroke="#1a1917" stroke-width="2.5" marker-end="url(#a)"/><text x="340" y="272" font-family="Arial,Helvetica,sans-serif" font-size="10.5" font-weight="600" fill="#6b6764" text-anchor="middle">o tempo passa sempre nesta direção</text></svg>