<?xml version="1.0" encoding="UTF-8"?>
<svg xmlns="http://www.w3.org/2000/svg" viewBox="0 0 460 440" role="img"><rect width="100%" height="100%" fill="#fff"/><ellipse cx="210" cy="210.0" rx="165.0" ry="49.5" fill="none" stroke="#c0392b" stroke-width="2.4"/><ellipse cx="210" cy="144.2" rx="151.3" ry="45.4" fill="none" stroke="#7aa6c2" stroke-width="1.2"/><ellipse cx="210" cy="275.8" rx="151.3" ry="45.4" fill="none" stroke="#7aa6c2" stroke-width="1.2"/><ellipse cx="210" cy="74.8" rx="94.6" ry="28.4" fill="none" stroke="#7aa6c2" stroke-width="1.2"/><ellipse cx="210" cy="345.2" rx="94.6" ry="28.4" fill="none" stroke="#7aa6c2" stroke-width="1.2"/><ellipse cx="210" cy="210" rx="69.3" ry="165" fill="none" stroke="#9bb8cf" stroke-width="1.2"/><ellipse cx="210" cy="210" rx="132.0" ry="165" fill="none" stroke="#9bb8cf" stroke-width="1.2"/><line x1="210" y1="45" x2="210" y2="375" stroke="#2c7a3f" stroke-width="2.4"/><circle cx="210" cy="210" r="165" fill="none" stroke="#34495e" stroke-width="2.4"/><circle cx="210" cy="45" r="3" fill="#34495e"/><circle cx="210" cy="375" r="3" fill="#34495e"/><defs><marker id="ar" markerWidth="8" markerHeight="8" refX="6" refY="3" orient="auto"><path d="M0,0 L6,3 L0,6 Z" fill="#1a1a1a"/></marker></defs><line x1="18.685087726454526" y1="144.2064036273344" x2="62.685087726454526" y2="144.2064036273344" stroke="#1a1a1a" stroke-width="1.6" marker-end="url(#ar)"/><text x="12.685087726454526" y="149.2064036273344" font-family="Arial,Helvetica,sans-serif" font-size="16" font-weight="700" text-anchor="end">A</text><line x1="413" y1="150" x2="268.51" y2="120" stroke="#1a1a1a" stroke-width="1.6" marker-end="url(#ar)"/><text x="419" y="154" font-family="Arial,Helvetica,sans-serif" font-size="16" font-weight="700">B</text></svg>
