<?xml version="1.0" encoding="UTF-8"?>
<svg xmlns="http://www.w3.org/2000/svg" viewBox="-150 0 620 440" role="img"><rect x="-150" width="620" height="440" fill="#fff"/><ellipse cx="210" cy="210.0" rx="165.0" ry="49.5" fill="none" stroke="#c0392b" stroke-width="2.4"/><ellipse cx="210" cy="144.2" rx="151.3" ry="45.4" fill="none" stroke="#7aa6c2" stroke-width="1.2"/><ellipse cx="210" cy="275.8" rx="151.3" ry="45.4" fill="none" stroke="#7aa6c2" stroke-width="1.2"/><ellipse cx="210" cy="74.8" rx="94.6" ry="28.4" fill="none" stroke="#7aa6c2" stroke-width="1.2"/><ellipse cx="210" cy="345.2" rx="94.6" ry="28.4" fill="none" stroke="#7aa6c2" stroke-width="1.2"/><ellipse cx="210" cy="210" rx="69.3" ry="165" fill="none" stroke="#9bb8cf" stroke-width="1.2"/><ellipse cx="210" cy="210" rx="132.0" ry="165" fill="none" stroke="#9bb8cf" stroke-width="1.2"/><line x1="210" y1="45" x2="210" y2="375" stroke="#2c7a3f" stroke-width="2.4"/><circle cx="210" cy="210" r="165" fill="none" stroke="#34495e" stroke-width="2.4"/><circle cx="210" cy="45" r="3" fill="#34495e"/><circle cx="210" cy="375" r="3" fill="#34495e"/><line x1="375" y1="210" x2="397" y2="210" stroke="#999" stroke-width="0.8"/><text x="401" y="214" font-family="Arial,Helvetica,sans-serif" font-size="13" font-weight="600" fill="#c0392b" text-anchor="start">Equador</text><line x1="210" y1="45" x2="250" y2="31" stroke="#999" stroke-width="0.8"/><text x="254" y="35" font-family="Arial,Helvetica,sans-serif" font-size="13" font-weight="600" fill="#2c7a3f" text-anchor="start">Meridiano de Greenwich</text><line x1="58.685087726454526" y1="144.2064036273344" x2="36.685087726454526" y2="144.2064036273344" stroke="#999" stroke-width="0.8"/><text x="32.685087726454526" y="148.2064036273344" font-family="Arial,Helvetica,sans-serif" font-size="13" font-weight="600" fill="#1a1a1a" text-anchor="end">Trópico de Câncer</text><line x1="58.685087726454526" y1="275.7935963726656" x2="36.685087726454526" y2="275.7935963726656" stroke="#999" stroke-width="0.8"/><text x="32.685087726454526" y="279.7935963726656" font-family="Arial,Helvetica,sans-serif" font-size="13" font-weight="600" fill="#1a1a1a" text-anchor="end">Trópico de Capricórnio</text><text x="210" y="35" font-family="Arial,Helvetica,sans-serif" font-size="13" font-weight="600" fill="#1a1a1a" text-anchor="middle">Polo Norte</text><text x="210" y="395" font-family="Arial,Helvetica,sans-serif" font-size="13" font-weight="600" fill="#1a1a1a" text-anchor="middle">Polo Sul</text></svg>
