<?xml version="1.0" encoding="UTF-8"?>
<svg xmlns="http://www.w3.org/2000/svg" viewBox="0 0 640 360" role="img"><rect width="100%" height="100%" fill="#fff"/><text x="320" y="28" font-family="Arial,Helvetica,sans-serif" font-size="16" font-weight="800" fill="#1a1917" text-anchor="middle">Pirâmide etária</text><text x="320" y="47" font-family="Arial,Helvetica,sans-serif" font-size="11.5" font-weight="500" fill="#6b6764" text-anchor="middle">Mostra a população por idade e sexo</text><rect x="102" y="258.1" width="150" height="39.4" rx="2" fill="#3f7bab" opacity=".85"/><rect x="348" y="258.1" width="150" height="39.4" rx="2" fill="#d95f3b" opacity=".8"/><text x="300" y="281.8" font-family="Arial,Helvetica,sans-serif" font-size="9.5" font-weight="700" fill="#1a1917" text-anchor="middle">0 a 14 anos</text><rect x="130" y="213.7" width="122" height="39.4" rx="2" fill="#3f7bab" opacity=".85"/><rect x="348" y="213.7" width="122" height="39.4" rx="2" fill="#d95f3b" opacity=".8"/><text x="300" y="237.39999999999998" font-family="Arial,Helvetica,sans-serif" font-size="9.5" font-weight="700" fill="#1a1917" text-anchor="middle">15 a 29 anos</text><rect x="156" y="169.3" width="96" height="39.4" rx="2" fill="#3f7bab" opacity=".85"/><rect x="348" y="169.3" width="96" height="39.4" rx="2" fill="#d95f3b" opacity=".8"/><text x="300" y="193" font-family="Arial,Helvetica,sans-serif" font-size="9.5" font-weight="700" fill="#1a1917" text-anchor="middle">30 a 44 anos</text><rect x="184" y="124.9" width="68" height="39.4" rx="2" fill="#3f7bab" opacity=".85"/><rect x="348" y="124.9" width="68" height="39.4" rx="2" fill="#d95f3b" opacity=".8"/><text x="300" y="148.6" font-family="Arial,Helvetica,sans-serif" font-size="9.5" font-weight="700" fill="#1a1917" text-anchor="middle">45 a 59 anos</text><rect x="212" y="80.5" width="40" height="39.4" rx="2" fill="#3f7bab" opacity=".85"/><rect x="348" y="80.5" width="40" height="39.4" rx="2" fill="#d95f3b" opacity=".8"/><text x="300" y="104.2" font-family="Arial,Helvetica,sans-serif" font-size="9.5" font-weight="700" fill="#1a1917" text-anchor="middle">60 anos ou +</text><line x1="97" y1="300" x2="503" y2="300" stroke="#1a1917" stroke-width="1.5"/><text x="190" y="66" font-family="Arial,Helvetica,sans-serif" font-size="11" font-weight="800" fill="#3f7bab" text-anchor="middle">HOMENS</text><text x="410" y="66" font-family="Arial,Helvetica,sans-serif" font-size="11" font-weight="800" fill="#d95f3b" text-anchor="middle">MULHERES</text><rect x="500" y="90" width="128" height="66" rx="8" fill="#fff" stroke="#c9c4bd" stroke-width="1.5"/><text x="564" y="110" font-family="Arial,Helvetica,sans-serif" font-size="10" font-weight="600" fill="#6b6764" text-anchor="middle">Topo estreito =</text><text x="564" y="123" font-family="Arial,Helvetica,sans-serif" font-size="10" font-weight="600" fill="#6b6764" text-anchor="middle">poucos idosos</text><rect x="500" y="236" width="128" height="66" rx="8" fill="#fff" stroke="#c9c4bd" stroke-width="1.5"/><text x="564" y="256" font-family="Arial,Helvetica,sans-serif" font-size="10" font-weight="600" fill="#6b6764" text-anchor="middle">Base larga =</text><text x="564" y="269" font-family="Arial,Helvetica,sans-serif" font-size="10" font-weight="600" fill="#6b6764" text-anchor="middle">muitos jovens</text><line x1="452" y1="118" x2="500" y2="118" stroke="#c9c4bd" stroke-width="1"/><line x1="452" y1="280" x2="500" y2="280" stroke="#c9c4bd" stroke-width="1"/></svg>