<?xml version="1.0" encoding="UTF-8"?>
<svg xmlns="http://www.w3.org/2000/svg" viewBox="0 0 320 320" role="img"><rect width="100%" height="100%" fill="#fff"/><circle cx="160" cy="160" r="120" fill="none" stroke="#bbb" stroke-width="1"/><polygon points="217.98275605729688,102.01724394270309 169.89949493661166,169.89949493661166 160,160 150.10050506338834,150.10050506338834" fill="#e9c46a" stroke="#34495e" stroke-width="0.8"/><polygon points="217.9827560572969,217.98275605729688 150.10050506338834,169.89949493661166 160,160 169.89949493661166,150.10050506338834" fill="#e9c46a" stroke="#34495e" stroke-width="0.8"/><polygon points="102.01724394270312,217.9827560572969 150.10050506338834,150.10050506338834 160,160 169.89949493661166,169.89949493661166" fill="#e9c46a" stroke="#34495e" stroke-width="0.8"/><polygon points="102.01724394270309,102.01724394270312 169.89949493661166,150.10050506338834 160,160 150.10050506338834,169.89949493661166" fill="#e9c46a" stroke="#34495e" stroke-width="0.8"/><polygon points="160,42 180,160 160,160 140,160" fill="#fff" stroke="#34495e" stroke-width="1"/><polygon points="278,160 160,180 160,160 160,140" fill="#fff" stroke="#34495e" stroke-width="1"/><polygon points="160.00000000000003,278 140,160 160,160 180,160" fill="#fff" stroke="#34495e" stroke-width="1"/><polygon points="42,160.00000000000003 160,140 160,160 160,180" fill="#fff" stroke="#34495e" stroke-width="1"/><polygon points="160,42 169,160 160,160 151,160" fill="#2f6f8f" stroke="#34495e" stroke-width="1"/><polygon points="278,160 160,169 160,160 160,151" fill="#2f6f8f" stroke="#34495e" stroke-width="1"/><polygon points="160.00000000000003,278 151,160 160,160 169,160" fill="#2f6f8f" stroke="#34495e" stroke-width="1"/><polygon points="42,160.00000000000003 160,151 160,160 160,169" fill="#2f6f8f" stroke="#34495e" stroke-width="1"/><circle cx="160" cy="160" r="6" fill="#34495e"/><text x="160" y="32" font-family="Arial,Helvetica,sans-serif" font-size="20" font-weight="700" fill="#c0392b" text-anchor="middle">N</text><text x="160" y="302" font-family="Arial,Helvetica,sans-serif" font-size="20" font-weight="700" fill="#1a1a1a" text-anchor="middle">S</text><text x="296" y="166" font-family="Arial,Helvetica,sans-serif" font-size="20" font-weight="700" fill="#1a1a1a" text-anchor="middle">L</text><text x="24" y="166" font-family="Arial,Helvetica,sans-serif" font-size="20" font-weight="700" fill="#1a1a1a" text-anchor="middle">O</text><text x="252" y="74" font-family="Arial,Helvetica,sans-serif" font-size="14" font-weight="700" fill="#555" text-anchor="middle">NE</text><text x="68" y="74" font-family="Arial,Helvetica,sans-serif" font-size="14" font-weight="700" fill="#555" text-anchor="middle">NO</text><text x="252" y="252" font-family="Arial,Helvetica,sans-serif" font-size="14" font-weight="700" fill="#555" text-anchor="middle">SE</text><text x="68" y="252" font-family="Arial,Helvetica,sans-serif" font-size="14" font-weight="700" fill="#555" text-anchor="middle">SO</text></svg>
