<?xml version="1.0" encoding="UTF-8"?>
<svg xmlns="http://www.w3.org/2000/svg" viewBox="0 0 576 250" role="img"><rect width="100%" height="100%" fill="#fff"/><circle cx="40" cy="140" r="42" fill="#f4a92e"/><text x="40" y="205" font-family="Arial,Helvetica,sans-serif" font-size="13" font-weight="700" text-anchor="middle">Sol</text><circle cx="186" cy="140" r="6" fill="#b0a18b" stroke="#555" stroke-width="0.6"/><line x1="186" y1="149" x2="186" y2="157" stroke="#bbb" stroke-width="0.6"/><text x="186" y="168" font-family="Arial,Helvetica,sans-serif" font-size="12" font-weight="600" text-anchor="middle">Mercúrio</text><circle cx="235" cy="140" r="9" fill="#e3b76b" stroke="#555" stroke-width="0.6"/><line x1="235" y1="152" x2="235" y2="178" stroke="#bbb" stroke-width="0.6"/><text x="235" y="189" font-family="Arial,Helvetica,sans-serif" font-size="12" font-weight="600" text-anchor="middle">Vênus</text><circle cx="287" cy="140" r="9" fill="#3b7fd4" stroke="#555" stroke-width="0.6"/><line x1="287" y1="152" x2="287" y2="160" stroke="#bbb" stroke-width="0.6"/><text x="287" y="171" font-family="Arial,Helvetica,sans-serif" font-size="12" font-weight="600" text-anchor="middle">Terra</text><circle cx="337" cy="140" r="7" fill="#c1502e" stroke="#555" stroke-width="0.6"/><line x1="337" y1="150" x2="337" y2="176" stroke="#bbb" stroke-width="0.6"/><text x="337" y="187" font-family="Arial,Helvetica,sans-serif" font-size="12" font-weight="600" text-anchor="middle">Marte</text><circle cx="384" cy="140" r="20" fill="#d8a878" stroke="#555" stroke-width="0.6"/><line x1="384" y1="163" x2="384" y2="171" stroke="#bbb" stroke-width="0.6"/><text x="384" y="182" font-family="Arial,Helvetica,sans-serif" font-size="12" font-weight="600" text-anchor="middle">Júpiter</text><ellipse cx="441" cy="140" rx="26" ry="5" fill="none" stroke="#caa84e" stroke-width="3"/><circle cx="441" cy="140" r="17" fill="#e3cd8e" stroke="#555" stroke-width="0.6"/><line x1="441" y1="160" x2="441" y2="186" stroke="#bbb" stroke-width="0.6"/><text x="441" y="197" font-family="Arial,Helvetica,sans-serif" font-size="12" font-weight="600" text-anchor="middle">Saturno</text><circle cx="491" cy="140" r="13" fill="#9fd6e0" stroke="#555" stroke-width="0.6"/><line x1="491" y1="156" x2="491" y2="164" stroke="#bbb" stroke-width="0.6"/><text x="491" y="175" font-family="Arial,Helvetica,sans-serif" font-size="12" font-weight="600" text-anchor="middle">Urano</text><circle cx="536" cy="140" r="12" fill="#3f63c0" stroke="#555" stroke-width="0.6"/><line x1="536" y1="155" x2="536" y2="181" stroke="#bbb" stroke-width="0.6"/><text x="536" y="192" font-family="Arial,Helvetica,sans-serif" font-size="12" font-weight="600" text-anchor="middle">Netuno</text></svg>
