<?xml version="1.0" encoding="UTF-8"?>
<svg xmlns="http://www.w3.org/2000/svg" viewBox="0 0 560 300" role="img"><rect width="100%" height="100%" fill="#fff"/><ellipse cx="210" cy="170" rx="60" ry="37.2" fill="none" stroke="#9bb8cf" stroke-width="1.5" transform="rotate(-20 210 170)"/><ellipse cx="210" cy="170" rx="100" ry="62" fill="none" stroke="#9bb8cf" stroke-width="1.5" transform="rotate(-20 210 170)"/><circle cx="203" cy="166" r="9" fill="#c0392b"/><text x="203" y="170" font-family="Arial,Helvetica,sans-serif" font-size="10" font-weight="700" fill="#fff" text-anchor="middle">+</text><circle cx="216" cy="164" r="9" fill="#888"/><circle cx="218" cy="175" r="9" fill="#c0392b"/><text x="218" y="179" font-family="Arial,Helvetica,sans-serif" font-size="10" font-weight="700" fill="#fff" text-anchor="middle">+</text><circle cx="205" cy="177" r="9" fill="#888"/><circle cx="210" cy="170" r="9" fill="#c0392b"/><text x="210" y="174" font-family="Arial,Helvetica,sans-serif" font-size="10" font-weight="700" fill="#fff" text-anchor="middle">+</text><circle cx="150" cy="194" r="7" fill="#2f7fbf"/><text x="150" y="197" font-family="Arial,Helvetica,sans-serif" font-size="9" font-weight="700" fill="#fff" text-anchor="middle">-</text><circle cx="258" cy="152" r="7" fill="#2f7fbf"/><text x="258" y="155" font-family="Arial,Helvetica,sans-serif" font-size="9" font-weight="700" fill="#fff" text-anchor="middle">-</text><circle cx="300" cy="182" r="7" fill="#2f7fbf"/><text x="300" y="185" font-family="Arial,Helvetica,sans-serif" font-size="9" font-weight="700" fill="#fff" text-anchor="middle">-</text><circle cx="186" cy="123.2" r="7" fill="#2f7fbf"/><text x="186" y="126.2" font-family="Arial,Helvetica,sans-serif" font-size="9" font-weight="700" fill="#fff" text-anchor="middle">-</text><line x1="216" y1="162" x2="357" y2="90" stroke="#999" stroke-width="0.8"/><text x="360" y="94" font-family="Arial,Helvetica,sans-serif" font-size="11" font-weight="600" fill="#7a3a2e" text-anchor="start">núcleo (prótons + nêutrons)</text><line x1="150" y1="194" x2="357" y2="200" stroke="#999" stroke-width="0.8"/><text x="360" y="204" font-family="Arial,Helvetica,sans-serif" font-size="11" font-weight="600" fill="#2f7fbf" text-anchor="start">elétron (–)</text><line x1="310" y1="140" x2="357" y2="250" stroke="#999" stroke-width="0.8"/><text x="360" y="254" font-family="Arial,Helvetica,sans-serif" font-size="11" font-weight="600" fill="#5b7fa6" text-anchor="start">eletrosfera</text><text x="230" y="30" font-family="Arial,Helvetica,sans-serif" font-size="18" font-weight="700" fill="#1a1a1a" text-anchor="middle">O Átomo</text></svg>
