<?xml version="1.0" encoding="UTF-8"?>
<svg xmlns="http://www.w3.org/2000/svg" viewBox="0 0 580 320" role="img"><rect width="100%" height="100%" fill="#fff"/><circle cx="180" cy="170" r="55" fill="none" stroke="#9bb8cf" stroke-width="1.4"/><circle cx="180.0" cy="115.0" r="5" fill="#2f7fbf"/><circle cx="180.0" cy="225.0" r="5" fill="#2f7fbf"/><text x="237" y="166" font-family="Arial,Helvetica,sans-serif" font-size="11" font-weight="600" fill="#2f6f9f" text-anchor="start">K = 2</text><circle cx="180" cy="170" r="95" fill="none" stroke="#9bb8cf" stroke-width="1.4"/><circle cx="180.0" cy="75.0" r="5" fill="#2f7fbf"/><circle cx="247.2" cy="102.8" r="5" fill="#2f7fbf"/><circle cx="275.0" cy="170.0" r="5" fill="#2f7fbf"/><circle cx="247.2" cy="237.2" r="5" fill="#2f7fbf"/><circle cx="180.0" cy="265.0" r="5" fill="#2f7fbf"/><circle cx="112.8" cy="237.2" r="5" fill="#2f7fbf"/><circle cx="85.0" cy="170.0" r="5" fill="#2f7fbf"/><circle cx="112.8" cy="102.8" r="5" fill="#2f7fbf"/><text x="277" y="166" font-family="Arial,Helvetica,sans-serif" font-size="11" font-weight="600" fill="#2f6f9f" text-anchor="start">L = 8</text><circle cx="180" cy="170" r="135" fill="none" stroke="#9bb8cf" stroke-width="1.4"/><circle cx="180.0" cy="35.0" r="5" fill="#2f7fbf"/><circle cx="308.4" cy="128.3" r="5" fill="#2f7fbf"/><circle cx="259.4" cy="279.2" r="5" fill="#2f7fbf"/><circle cx="100.6" cy="279.2" r="5" fill="#2f7fbf"/><circle cx="51.6" cy="128.3" r="5" fill="#2f7fbf"/><text x="317" y="166" font-family="Arial,Helvetica,sans-serif" font-size="11" font-weight="600" fill="#2f6f9f" text-anchor="start">M = 5</text><circle cx="180" cy="170" r="14" fill="#c0392b"/><text x="180" y="174" font-family="Arial,Helvetica,sans-serif" font-size="14" font-weight="700" fill="#fff" text-anchor="middle">+</text><text x="360" y="150" font-family="Arial,Helvetica,sans-serif" font-size="12" font-weight="600" fill="#1a1a1a" text-anchor="start">Os elétrons se organizam</text><text x="360" y="170" font-family="Arial,Helvetica,sans-serif" font-size="12" font-weight="600" fill="#1a1a1a" text-anchor="start">em camadas (K, L, M...),</text><text x="360" y="190" font-family="Arial,Helvetica,sans-serif" font-size="12" font-weight="600" fill="#1a1a1a" text-anchor="start">cada uma com um número</text><text x="360" y="210" font-family="Arial,Helvetica,sans-serif" font-size="12" font-weight="600" fill="#1a1a1a" text-anchor="start">máximo de elétrons.</text><text x="230" y="30" font-family="Arial,Helvetica,sans-serif" font-size="18" font-weight="700" fill="#1a1a1a" text-anchor="middle">Distribuição Eletrônica</text></svg>
