<?xml version="1.0" encoding="UTF-8"?>
<svg xmlns="http://www.w3.org/2000/svg" viewBox="0 0 600 200" role="img"><rect width="100%" height="100%" fill="#fff"/><defs><marker id="lq" markerWidth="9" markerHeight="9" refX="7" refY="3" orient="auto"><path d="M0,0 L7,3 L0,6 Z" fill="#c0392b"/></marker></defs><circle cx="70" cy="110" r="26" fill="#e9c46a" stroke="#b9942e" stroke-width="2"/><text x="70" y="115" font-family="Arial,Helvetica,sans-serif" font-size="14" font-weight="700" fill="#1a1a1a" text-anchor="middle">Na</text><circle cx="200" cy="110" r="26" fill="#8fb7d4" stroke="#5b7fa6" stroke-width="2"/><text x="200" y="115" font-family="Arial,Helvetica,sans-serif" font-size="14" font-weight="700" fill="#1a1a1a" text-anchor="middle">Cl</text><line x1="98" y1="110" x2="172" y2="110" stroke="#c0392b" stroke-width="2" marker-end="url(#lq)"/><circle cx="135" cy="100" r="5" fill="#2f7fbf"/><text x="135" y="55" font-family="Arial,Helvetica,sans-serif" font-size="12" font-weight="700" fill="#1a1a1a" text-anchor="middle">Iônica</text><text x="135" y="170" font-family="Arial,Helvetica,sans-serif" font-size="9" font-weight="600" fill="#999" text-anchor="middle">(transfere elétron)</text><circle cx="330" cy="110" r="24" fill="#cfe0ef" stroke="#5b7fa6" stroke-width="2"/><text x="330" y="115" font-family="Arial,Helvetica,sans-serif" font-size="14" font-weight="700" fill="#1a1a1a" text-anchor="middle">H</text><circle cx="420" cy="110" r="24" fill="#cfe0ef" stroke="#5b7fa6" stroke-width="2"/><text x="420" y="115" font-family="Arial,Helvetica,sans-serif" font-size="14" font-weight="700" fill="#1a1a1a" text-anchor="middle">H</text><circle cx="368" cy="106" r="5" fill="#2f7fbf"/><circle cx="382" cy="114" r="5" fill="#2f7fbf"/><text x="375" y="55" font-family="Arial,Helvetica,sans-serif" font-size="12" font-weight="700" fill="#1a1a1a" text-anchor="middle">Covalente</text><text x="375" y="170" font-family="Arial,Helvetica,sans-serif" font-size="9" font-weight="600" fill="#999" text-anchor="middle">(compartilha par)</text><rect x="482" y="80" width="76" height="60" rx="6" fill="#eef0f2" stroke="#9aa6b3" stroke-width="1.5"/><circle cx="496" cy="96" r="9" fill="#e9c46a" stroke="#b9942e" stroke-width="1"/><circle cx="520" cy="96" r="9" fill="#e9c46a" stroke="#b9942e" stroke-width="1"/><circle cx="544" cy="96" r="9" fill="#e9c46a" stroke="#b9942e" stroke-width="1"/><circle cx="496" cy="124" r="9" fill="#e9c46a" stroke="#b9942e" stroke-width="1"/><circle cx="520" cy="124" r="9" fill="#e9c46a" stroke="#b9942e" stroke-width="1"/><circle cx="544" cy="124" r="9" fill="#e9c46a" stroke="#b9942e" stroke-width="1"/><circle cx="508" cy="108" r="3.5" fill="#2f7fbf"/><circle cx="532" cy="114" r="3.5" fill="#2f7fbf"/><circle cx="520" cy="124" r="3.5" fill="#2f7fbf"/><circle cx="544" cy="102" r="3.5" fill="#2f7fbf"/><text x="520" y="55" font-family="Arial,Helvetica,sans-serif" font-size="12" font-weight="700" fill="#1a1a1a" text-anchor="middle">Metálica</text><text x="520" y="170" font-family="Arial,Helvetica,sans-serif" font-size="9" font-weight="600" fill="#999" text-anchor="middle">(mar de elétrons)</text><text x="300" y="30" font-family="Arial,Helvetica,sans-serif" font-size="18" font-weight="700" fill="#1a1a1a" text-anchor="middle">Ligações Químicas</text></svg>
