<?xml version="1.0" encoding="UTF-8"?>
<svg xmlns="http://www.w3.org/2000/svg" viewBox="0 0 600 215" role="img"><rect width="100%" height="100%" fill="#fff"/><circle cx="90" cy="120" r="34" fill="#b9a98a"/><text x="90" y="178" font-family="Arial,Helvetica,sans-serif" font-size="12" font-weight="700" fill="#1a1a1a" text-anchor="middle">Dalton</text><text x="90" y="194" font-family="Arial,Helvetica,sans-serif" font-size="9" font-weight="600" fill="#999" text-anchor="middle">bola maciça</text><circle cx="230" cy="120" r="34" fill="#cfe0ef" stroke="#5b7fa6" stroke-width="1.5"/><circle cx="218" cy="112" r="4" fill="#c0392b"/><circle cx="240" cy="108" r="4" fill="#c0392b"/><circle cx="244" cy="126" r="4" fill="#c0392b"/><circle cx="222" cy="132" r="4" fill="#c0392b"/><circle cx="230" cy="122" r="4" fill="#c0392b"/><text x="230" y="178" font-family="Arial,Helvetica,sans-serif" font-size="12" font-weight="700" fill="#1a1a1a" text-anchor="middle">Thomson</text><text x="230" y="194" font-family="Arial,Helvetica,sans-serif" font-size="9" font-weight="600" fill="#999" text-anchor="middle">pudim de passas</text><ellipse cx="370" cy="120" rx="34" ry="20" fill="none" stroke="#9bb8cf" stroke-width="1.4"/><circle cx="370" cy="120" r="9" fill="#c0392b"/><circle cx="404" cy="120" r="4" fill="#2f7fbf"/><text x="370" y="178" font-family="Arial,Helvetica,sans-serif" font-size="12" font-weight="700" fill="#1a1a1a" text-anchor="middle">Rutherford</text><text x="370" y="194" font-family="Arial,Helvetica,sans-serif" font-size="9" font-weight="600" fill="#999" text-anchor="middle">núcleo + órbitas</text><circle cx="510" cy="120" r="34" fill="none" stroke="#9bb8cf" stroke-width="1.2"/><circle cx="510" cy="120" r="20" fill="none" stroke="#9bb8cf" stroke-width="1.2"/><circle cx="510" cy="120" r="8" fill="#c0392b"/><circle cx="510" cy="100" r="4" fill="#2f7fbf"/><circle cx="510" cy="86" r="4" fill="#2f7fbf"/><text x="510" y="178" font-family="Arial,Helvetica,sans-serif" font-size="12" font-weight="700" fill="#1a1a1a" text-anchor="middle">Bohr</text><text x="510" y="194" font-family="Arial,Helvetica,sans-serif" font-size="9" font-weight="600" fill="#999" text-anchor="middle">camadas definidas</text><text x="300" y="30" font-family="Arial,Helvetica,sans-serif" font-size="18" font-weight="700" fill="#1a1a1a" text-anchor="middle">Modelos Atômicos</text></svg>
