<?xml version="1.0" encoding="UTF-8"?>
<svg xmlns="http://www.w3.org/2000/svg" viewBox="0 0 510 210" role="img"><rect width="100%" height="100%" fill="#fff"/><rect x="66" y="86" width="68" height="68" rx="6" fill="#fff" stroke="#c0392b" stroke-width="3" transform="rotate(45 100 120)"/><path d="M100,98 q12,14 0,28 q-12,-6 -4,-18 q-6,6 -2,16 q-10,-6 6,-26 Z" fill="#e8843c"/><text x="100" y="180" font-family="Arial,Helvetica,sans-serif" font-size="11" font-weight="700" fill="#1a1a1a" text-anchor="middle">Inflamável</text><rect x="221" y="86" width="68" height="68" rx="6" fill="#fff" stroke="#c0392b" stroke-width="3" transform="rotate(45 255 120)"/><circle cx="255" cy="114" r="14" fill="#1a1a1a"/><circle cx="250" cy="112" r="3" fill="#fff"/><circle cx="260" cy="112" r="3" fill="#fff"/><rect x="247" y="126" width="16" height="6" fill="#1a1a1a"/><text x="255" y="180" font-family="Arial,Helvetica,sans-serif" font-size="11" font-weight="700" fill="#1a1a1a" text-anchor="middle">Tóxico</text><rect x="376" y="86" width="68" height="68" rx="6" fill="#fff" stroke="#c0392b" stroke-width="3" transform="rotate(45 410 120)"/><path d="M396,104 l8,18 M420,102 l-6,16" stroke="#1a1a1a" stroke-width="2.5"/><path d="M392,126 q18,10 36,0" fill="none" stroke="#1a1a1a" stroke-width="2.5"/><path d="M396,130 l-3,8 M416,132 l3,8" stroke="#2f7fbf" stroke-width="2"/><text x="410" y="180" font-family="Arial,Helvetica,sans-serif" font-size="11" font-weight="700" fill="#1a1a1a" text-anchor="middle">Corrosivo</text><text x="255" y="30" font-family="Arial,Helvetica,sans-serif" font-size="18" font-weight="700" fill="#1a1a1a" text-anchor="middle">Símbolos de Segurança</text></svg>
