<?xml version="1.0" encoding="UTF-8"?>
<svg xmlns="http://www.w3.org/2000/svg" viewBox="0 0 500 235" role="img"><rect width="100%" height="100%" fill="#fff"/><path d="M44,80 L136,80 L132,190 L48,190 Z" fill="none" stroke="#5b7fa6" stroke-width="2"/><path d="M47,124 L133,124 L132,190 L48,190 Z" fill="#eef6fc"/><circle cx="70" cy="136" r="6" fill="#2f7fbf"/><circle cx="90" cy="132" r="6" fill="#2f7fbf"/><circle cx="112" cy="138" r="6" fill="#2f7fbf"/><circle cx="76" cy="158" r="6" fill="#2f7fbf"/><circle cx="100" cy="156" r="6" fill="#2f7fbf"/><circle cx="116" cy="164" r="6" fill="#2f7fbf"/><circle cx="88" cy="168" r="6" fill="#2f7fbf"/><text x="90" y="212" font-family="Arial,Helvetica,sans-serif" font-size="12" font-weight="700" fill="#1a1a1a" text-anchor="middle">Substância pura</text><path d="M204,80 L296,80 L292,190 L208,190 Z" fill="none" stroke="#5b7fa6" stroke-width="2"/><path d="M207,124 L293,124 L292,190 L208,190 Z" fill="#eef6fc"/><circle cx="230" cy="136" r="6" fill="#2f7fbf"/><circle cx="250" cy="132" r="6" fill="#c0392b"/><circle cx="272" cy="138" r="6" fill="#2f7fbf"/><circle cx="236" cy="158" r="6" fill="#c0392b"/><circle cx="260" cy="156" r="6" fill="#2f7fbf"/><circle cx="276" cy="164" r="6" fill="#c0392b"/><circle cx="248" cy="168" r="6" fill="#2f7fbf"/><text x="250" y="212" font-family="Arial,Helvetica,sans-serif" font-size="12" font-weight="700" fill="#1a1a1a" text-anchor="middle">Mistura homogênea</text><path d="M364,80 L456,80 L452,190 L368,190 Z" fill="none" stroke="#5b7fa6" stroke-width="2"/><path d="M367,124 L453,124 L452,190 L368,190 Z" fill="#eef6fc"/><circle cx="388" cy="136" r="6" fill="#2f7fbf"/><circle cx="404" cy="134" r="6" fill="#2f7fbf"/><circle cx="394" cy="154" r="6" fill="#2f7fbf"/><circle cx="424" cy="136" r="6" fill="#c0392b"/><circle cx="434" cy="152" r="6" fill="#c0392b"/><circle cx="418" cy="162" r="6" fill="#c0392b"/><circle cx="434" cy="168" r="6" fill="#c0392b"/><text x="410" y="212" font-family="Arial,Helvetica,sans-serif" font-size="12" font-weight="700" fill="#1a1a1a" text-anchor="middle">Mistura heterogênea</text><text x="250" y="30" font-family="Arial,Helvetica,sans-serif" font-size="18" font-weight="700" fill="#1a1a1a" text-anchor="middle">Substância e Mistura</text></svg>
