<?xml version="1.0" encoding="UTF-8"?>
<svg xmlns="http://www.w3.org/2000/svg" viewBox="0 0 510 230" role="img"><rect width="100%" height="100%" fill="#fff"/><path d="M44,90 L44,170 Q44,180 54,180 L86,180 Q96,180 96,170 L96,90" fill="#eef6fc" stroke="#5b7fa6" stroke-width="2"/><path d="M44,90 l-6,-6" stroke="#5b7fa6" stroke-width="2"/><text x="70" y="205" font-family="Arial,Helvetica,sans-serif" font-size="11" font-weight="700" fill="#1a1a1a" text-anchor="middle">Béquer</text><path d="M190,90 L190,120 L170,178 Q168,182 174,182 L226,182 Q232,182 230,178 L210,120 L210,90 Z" fill="#eef6fc" stroke="#5b7fa6" stroke-width="2"/><text x="200" y="205" font-family="Arial,Helvetica,sans-serif" font-size="11" font-weight="700" fill="#1a1a1a" text-anchor="middle">Erlenmeyer</text><rect x="318" y="86" width="24" height="96" rx="3" fill="#eef6fc" stroke="#5b7fa6" stroke-width="2"/><line x1="332" y1="112" x2="342" y2="112" stroke="#5b7fa6" stroke-width="1"/><line x1="332" y1="128" x2="342" y2="128" stroke="#5b7fa6" stroke-width="1"/><line x1="332" y1="144" x2="342" y2="144" stroke="#5b7fa6" stroke-width="1"/><line x1="332" y1="160" x2="342" y2="160" stroke="#5b7fa6" stroke-width="1"/><ellipse cx="330" cy="186" rx="18" ry="5" fill="#eef6fc" stroke="#5b7fa6" stroke-width="2"/><text x="330" y="205" font-family="Arial,Helvetica,sans-serif" font-size="11" font-weight="700" fill="#1a1a1a" text-anchor="middle">Proveta</text><path d="M430,86 L430,168 Q430,182 440,182 Q450,182 450,168 L450,86" fill="#eef6fc" stroke="#5b7fa6" stroke-width="2"/><text x="440" y="205" font-family="Arial,Helvetica,sans-serif" font-size="10" font-weight="700" fill="#1a1a1a" text-anchor="middle">Tubo de ensaio</text><text x="255" y="30" font-family="Arial,Helvetica,sans-serif" font-size="18" font-weight="700" fill="#1a1a1a" text-anchor="middle">Vidrarias de Laboratório</text></svg>
